<svg width="110" height="80" viewBox="0 0 110 80" fill="none" xmlns="http://www.w3.org/2000/svg">
<g clip-path="url(#clip0)">
<path d="M77.5924 19.9876C78.7639 23.1068 79.7342 28.1737 77.0102 30.7036C76.4281 31.0917 75.6447 31.681 74.6744 31.4798C73.697 30.7036 72.9208 29.5321 72.3314 28.5546C71.354 26.801 70.1896 25.2414 69.6075 23.4877H69.4134C68.6372 26.0176 69.2194 29.1368 68.2419 31.6738C68.0479 32.062 67.4657 32.062 67.0704 32.062C66.6751 32.062 66.093 31.6738 65.8989 31.0845C65.3167 29.913 65.7049 28.5546 65.7049 27.1891C65.8989 24.458 66.4811 21.54 67.6526 19.197C68.0407 18.8089 68.4288 18.6148 68.8241 18.6148C69.6003 19.0029 70.1896 19.7863 70.7718 20.5625C72.5255 22.7043 73.5029 25.2414 75.4506 27.1891C75.6447 23.4877 74.2791 20.3685 73.697 16.8612C73.697 16.279 73.5029 15.6897 74.0851 15.4956C75.8387 16.4802 76.809 18.428 77.5924 19.9876Z" fill="white"/>
<path d="M92.2036 19.9873C92.3976 20.1813 92.7857 20.5695 92.3976 20.9647C91.2261 21.741 89.8678 21.5469 88.5022 21.5469H85.577C85.383 22.3231 85.1889 22.9125 84.9949 23.6887L89.2784 23.8827C89.8606 24.2708 89.6665 25.2483 89.6665 25.8304C87.9128 26.4126 85.9651 26.2185 84.2115 26.2185L83.8234 26.4126L83.0471 29.1365C85.1889 29.1365 87.3379 28.3603 89.4797 28.5544C90.0618 28.9425 90.4571 29.7259 90.2559 30.308C88.1141 31.8676 85.7783 33.032 83.2412 33.4272C81.6816 33.4272 80.5173 32.8451 79.7339 31.4795C78.7564 29.7259 79.7339 27.7782 80.316 26.2185C80.316 25.4423 80.122 24.853 80.316 24.0768C80.7041 23.4946 81.8756 24.0768 82.0697 23.0993L82.6518 21.3457C82.0697 20.9576 81.0922 21.1516 80.5101 20.5695L79.9279 19.2039L80.122 19.0098C83.4352 18.6217 86.9426 18.0324 90.2559 18.2336C91.2261 18.4277 91.6214 19.2039 92.2036 19.9873Z" fill="white"/>
<path d="M65.5115 18.6217C65.5115 19.0098 65.3174 19.3979 64.9293 19.5992C63.9518 20.1813 62.9816 20.1813 61.8101 20.3754C58.8849 20.7635 55.3847 20.1813 52.8477 21.3528L52.6536 21.5469C55.7728 22.5243 59.4742 22.3231 62.5935 23.3005C63.5709 23.8827 64.5412 24.6661 64.7352 25.8304C65.1233 27.0019 64.7352 28.5543 64.3471 29.5318C61.8101 32.0617 57.7206 32.457 54.4073 31.2855C52.8477 30.5093 50.7059 29.3377 50.7059 27.5841C50.7059 26.4126 51.4821 25.4423 52.4596 25.047C54.6013 24.4649 57.1384 25.047 59.2802 25.6292L60.8398 26.4054C60.6457 27.5769 59.2802 27.5769 58.3099 27.771C56.1681 28.1591 54.6085 25.8232 52.4668 26.5994C52.0786 26.9876 51.8846 27.1816 52.0786 27.5769C52.8549 28.9425 55.0038 28.5543 56.3622 28.5543C58.504 28.5543 60.4517 27.9722 62.2054 26.9947C62.3994 26.8007 62.5935 26.4126 62.3994 26.2185C59.2802 23.6887 54.4145 24.853 50.9071 23.6887C50.325 23.3005 49.9297 22.7112 49.9297 22.129C49.9297 20.7635 50.5118 19.3979 51.6834 18.8158C54.9966 17.0621 59.0861 16.8681 62.9816 17.6443C63.7578 17.8455 64.7352 18.0396 65.5115 18.6217Z" fill="white"/>
<path d="M48.1687 19.3981C48.3628 22.7114 48.5568 26.2187 48.5568 29.726C48.3628 30.5022 48.5568 31.6737 47.5794 31.8678C46.8032 32.0618 46.2138 31.6737 45.6317 31.4797C45.0495 30.8975 45.0495 29.9201 44.8555 29.1439C44.8555 25.6365 45.0495 22.3233 45.6317 19.01C45.8257 18.4279 46.0198 17.4504 46.6091 17.2563C47.5866 17.4504 47.9747 18.4278 48.1687 19.3981Z" fill="white"/>
<path d="M43.1016 19.9874C41.736 15.3085 37.4525 11.219 33.557 8.09983L29.4676 5.76401C22.0576 1.8614 13.2893 -1.25063 4.32697 0.50303C3.15547 0.697083 1.99115 0.891135 1.0137 1.86859C0.819649 2.6448 -0.53872 3.42101 0.237491 4.39846C1.0137 4.78656 2.1852 4.98062 3.16265 4.78656C3.35671 4.59251 3.74481 4.59251 3.74481 4.39846C3.35671 3.62225 2.37926 3.42101 1.7971 3.42101C6.47592 2.2495 12.125 3.0329 16.7966 4.00316C24.3934 6.33898 31.7962 9.65225 37.0572 16.4728C38.8108 19.1968 40.1764 23.0994 38.0346 25.8233C33.7511 30.8902 26.7365 30.8902 20.304 29.7187L20.1099 29.5247C20.1099 26.4055 19.9159 23.2863 20.304 20.1742C23.8113 20.1742 27.1246 20.9504 30.2438 22.316C30.0497 23.0922 28.8782 23.6815 28.2961 24.2637V24.4578C28.8782 24.6518 29.2735 25.0399 30.0497 25.0399C31.4153 25.0399 32.5796 24.0625 33.1689 22.8981C33.557 21.7266 33.1689 20.5623 32.1915 19.5849C29.0723 17.055 24.7887 16.6597 20.498 16.6597L20.304 16.4657C20.1099 14.1298 20.498 11.5928 18.7444 9.64507C18.5503 9.45101 18.1622 8.86886 17.7669 9.45101C16.9907 11.5928 16.7895 14.1298 16.5954 16.4657C16.5954 16.6597 16.4014 16.8538 16.2073 16.8538C12.7 17.4359 8.80455 18.0253 6.2675 20.9432C5.09599 23.2791 8.02116 25.2268 9.38671 26.7864C11.3344 28.54 13.6702 29.7115 15.8192 31.0699C16.0133 32.0474 16.2073 33.0176 16.4014 33.7938C16.7895 34.9653 17.961 34.376 18.9312 34.5701C19.9087 34.5701 19.9087 33.3985 20.1027 32.6223C26.5352 34.376 33.7439 33.7938 39.0049 30.2865C42.3254 27.9723 44.079 23.8828 43.1016 19.9874ZM15.8264 28.3676C13.8787 27.7854 12.125 26.6139 10.3714 25.6436C9.19985 24.8674 8.03553 23.89 7.05808 22.5244C7.05808 21.9423 7.64024 21.7482 8.03553 21.3529C10.5654 20.7708 13.2965 20.1814 16.2217 20.1814V20.3755C16.0204 22.9053 16.2145 25.8305 15.8264 28.3676Z" fill="white"/>
<path d="M56.5491 7.12947C55.9669 6.35326 54.9895 5.76392 54.012 5.56986C53.0418 4.39836 51.6762 4.01025 50.1166 4.01025C46.8034 4.01025 43.4901 5.95797 41.9305 9.07718C41.1543 10.4427 41.5424 12.0023 42.5127 12.9726C42.3186 13.9501 42.5127 14.9203 43.0948 15.5025C44.0723 16.0846 44.4604 15.1144 45.2366 14.7263C48.3558 15.8978 51.2737 14.3382 53.8108 12.3905C55.3776 11.219 57.3253 9.46529 56.5491 7.12947ZM43.8854 10.8308C43.4973 9.85339 44.4676 8.88313 45.0569 8.30097C45.8403 7.52476 46.6165 7.12947 47.5868 6.93542C46.4153 8.09973 45.0497 9.27124 43.8854 10.8308ZM52.6537 11.0249C50.9 12.0023 48.7583 12.5845 46.6165 12.1964C47.0046 11.219 47.9821 10.4427 48.7583 9.86058C50.1238 8.68908 51.8775 7.33071 53.8252 7.52476L54.6014 8.30816C54.7954 9.46529 53.4299 10.4356 52.6537 11.0249Z" fill="white"/>
<path d="M104.673 19.5994C103.897 19.2113 103.308 19.5994 102.726 19.7934C99.4124 21.9352 97.2706 24.6663 94.7408 27.3902C94.5467 26.8081 94.9348 26.2187 94.9348 25.6366C95.517 22.9126 98.2481 21.1518 98.2481 18.2338C98.2481 18.0398 98.2481 17.8457 97.86 17.8457C96.6885 18.4279 95.7182 19.7934 94.9348 20.7709C93.1812 23.4948 91.2335 27.0021 92.9871 30.3154C91.8156 33.2405 90.8454 36.3526 90.062 39.4718C89.6739 41.0314 89.2858 43.1732 90.8382 44.5387C91.4203 44.9268 92.0097 45.7102 92.7859 45.3149C93.5621 41.2255 94.7336 37.1288 96.2932 33.4274C97.2706 33.4274 98.2409 33.4274 99.0171 33.2334C102.718 32.2559 106.614 28.7558 107.009 24.8532C107.009 22.7114 106.427 20.7637 104.673 19.5994ZM102.532 27.9724C101.418 28.9067 100.074 29.5104 98.6362 29.726L98.8302 29.1439C100.39 26.8081 101.949 24.271 104.091 22.3233C104.479 22.3233 104.673 22.7114 104.673 23.0995C105.061 25.0544 104.091 26.8081 102.532 27.9724Z" fill="white"/>
<path d="M16.9976 63.4336L7.83398 79.2165H10.371L12.7069 75.5152H21.2811L23.4229 79.2165H25.9528L16.9976 63.4336ZM13.6843 73.7615L16.9976 67.5303L20.3109 73.7615H13.6843Z" fill="white"/>
<path d="M45.4435 64.7992C44.078 64.023 42.3243 63.8218 40.7647 63.8218C35.1156 63.8218 30.6309 67.135 30.6309 71.8139C30.6309 76.0974 35.1156 79.6047 40.5707 79.6047C42.1303 79.6047 44.078 79.2166 45.4435 78.4332V76.2915C44.078 77.2689 42.3243 77.8511 40.3766 77.8511C36.2871 77.8511 32.9739 74.9259 32.9739 71.6198C32.9739 68.3066 36.2871 65.3814 40.3766 65.3814C42.3243 65.3814 44.078 65.9635 45.4435 66.941V64.7992Z" fill="white"/>
<path d="M57.5192 65.7766H62.0039V64.0229H50.5117V65.7766H54.9893V79.2166H57.5192V65.7766Z" fill="white"/>
<path d="M70.1815 64.0229H67.8457V79.2166H70.1815V64.0229Z" fill="white"/>
<path d="M78.3685 64.0229H75.6445L84.0247 80L92.2037 64.0229H89.6666L84.0247 75.3211L78.3685 64.0229Z" fill="white"/>
<path d="M97.8535 79.2166H107.987V77.4629H100.197V71.8138H107.793V70.0601H100.197V65.7766H107.987V64.0229H97.8535V79.2166Z" fill="white"/>
<path d="M11.3417 41.0312H9.00586V56.232H11.3417V41.0312Z" fill="white"/>
<path d="M24.4004 56.2251H26.7362V44.9269L40.9596 57.0085V41.0315H38.6237V52.3297L24.4004 40.4421V56.2251Z" fill="white"/>
<path d="M59.0791 42.7849H63.5639V41.0312H52.0645V42.7849H56.7433V56.2249H59.0791V42.7849Z" fill="white"/>
<path d="M75.0547 56.2249H85.1886V54.6652H77.3977V48.8221H84.9945V47.0684H77.3977V42.7849H85.1886V41.0312H75.0547V56.2249Z" fill="white"/>
<path d="M103.501 49.7997C106.232 49.4116 107.986 47.6579 107.986 45.5162C107.986 43.9566 107.21 42.591 105.65 41.8148C104.091 41.2326 102.337 41.0386 100.583 41.0386H97.6582V56.2394H99.994V49.8069H100.971L106.621 56.2394H109.546L103.501 49.7997ZM100.777 48.2401H100.001V42.785H100.777C103.113 42.785 105.844 43.1732 105.844 45.509C105.844 48.0388 103.307 48.2401 100.777 48.2401Z" fill="white"/>
</g>
<defs>
<clipPath id="clip0">
<rect width="109.546" height="80" fill="white"/>
</clipPath>
</defs>
</svg>
