<svg width="79" height="90" viewBox="0 0 79 90" fill="none" xmlns="http://www.w3.org/2000/svg">
<path d="M36.1897 11.9368H31.2051V29.1352H36.1897V11.9368Z" fill="white"/>
<path d="M77.3927 5.68421C76.9263 4.56194 76.2559 3.58543 75.4105 2.72551C74.5798 1.86559 73.5741 1.19514 72.481 0.74332C71.3441 0.247773 70.1053 0 68.8664 0H9.26964C8.03077 0 6.82105 0.262348 5.66964 0.74332C4.57652 1.20972 3.58542 1.88016 2.74008 2.72551C1.88016 3.58543 1.20972 4.57652 0.74332 5.68421C0.247773 6.83563 0 8.05992 0 9.31336V74.7547L39.0753 90L78.1506 74.7547V9.31336C78.136 8.05992 77.8883 6.83563 77.3927 5.68421ZM46.5231 6.00486H52.9069V58.1976H46.5377V6.00486H46.5231ZM46.7417 63.2551V72.6559H44.6721V66.8405C44.6721 66.651 44.6866 66.3449 44.7449 65.8348C44.5409 66.2575 44.3514 66.5927 44.1911 66.8259L40.5911 71.5336H40.1393L36.5393 66.8113C36.3206 66.5198 36.1166 66.2138 35.9563 65.8494C36 66.2429 36.0146 66.5344 36.0146 66.8551V72.6704H34.2073V63.2551H36.0146L40.5328 68.9393L44.9636 63.2551H46.7417ZM25.1417 6.00486H31.2777H36.5976C42.2526 6.00486 42.2672 11.5287 42.2672 11.5287V29.5142C42.2672 35.0381 36.7142 35.0526 36.6121 35.0526H31.2194V52.251V58.1976H25.1417V6.00486ZM3.6583 52.6445V11.5287C3.6583 8.57004 5.39271 7.18542 6.83563 6.52955C8.38057 5.82996 9.92551 5.82996 9.98381 5.82996H21.0462V12.1555H10.0858V28.9166H18.3061V35.3296H10.0858V52.0907H21.0316V58.4162H9.98381C8.00162 58.4162 6.42753 57.8623 5.33441 56.7401C3.6583 55.0348 3.6583 52.732 3.6583 52.6445ZM16.9652 65.6016L14.7935 65.9951V64.9312H7.82672V70.8777H14.7935V68.7789H11.1498V67.1757H16.9652V70.4113C16.9652 72.1749 16.3822 72.6413 14.5895 72.6413H7.97247C6.16518 72.6413 5.59676 72.1895 5.59676 70.4113V65.4704C5.59676 63.7069 6.17976 63.2405 7.97247 63.2405H14.5895C16.3385 63.2405 16.9652 63.6923 16.9652 65.383V65.6016ZM21.0899 72.6559H18.8599L24.2818 63.2551H26.4389L31.9336 72.6559H29.4413L28.2899 70.5862H22.2121L21.0899 72.6559ZM39.0753 84.7093L22.7806 78.3547H55.3846L39.0753 84.7093ZM59.4073 64.8146H51.8283V66.9134H56.2591V68.5166H51.8283V70.834H59.3927V72.5976H49.5984V63.2113H59.4073V64.8146ZM72.5393 70.4113C72.5393 72.1749 71.9417 72.6413 70.1344 72.6413H64.2024C62.3951 72.6413 61.7976 72.1895 61.7976 70.4113V70.149L63.7652 69.7409V70.8632H70.5425V68.7061H64.5522C62.7449 68.7061 62.1765 68.2542 62.1765 66.4761V65.4413C62.1765 63.6777 62.7595 63.2113 64.5522 63.2113H70.0032C71.7085 63.2113 72.379 63.6632 72.379 65.281V65.485L70.4113 65.9368V64.8583H64.1296V64.8729V66.8988H70.1198C71.9271 66.8988 72.5247 67.3506 72.5247 69.1287V70.4113H72.5393ZM74.2591 20.0696H68.196V11.9514H63.4008C63.3571 11.9514 63.2842 11.9514 63.2405 11.966V52.2656H63.3134H68.2105V44.3077H74.23V52.6737C74.23 58.1684 68.6915 58.2121 68.5749 58.2121H63.2551C57.1045 58.2121 57.119 52.63 57.119 52.63V11.5287C57.119 6.00486 63.2551 6.00486 63.2551 6.00486H68.5749C74.2445 6.00486 74.2445 11.5287 74.2445 11.5287V20.0696H74.2591Z" fill="white"/>
<path d="M23.1602 68.9101H27.3577L25.3027 65.0769L23.1602 68.9101Z" fill="white"/>
</svg>
