<svg  viewBox="0 0 104 115" fill="none" xmlns="http://www.w3.org/2000/svg">
<rect width="104" height="104" fill="#222222"/>
<path d="M28.1236 111V96.6H31.7776C33.1216 96.6 34.0906 96.873 34.6846 97.419C35.2846 97.959 35.6056 98.856 35.6476 100.11C35.6596 100.446 35.6656 100.74 35.6656 100.992C35.6716 101.244 35.6716 101.496 35.6656 101.748C35.6656 102 35.6596 102.294 35.6476 102.63C35.6236 103.41 35.4916 104.049 35.2516 104.547C35.0176 105.045 34.6516 105.426 34.1536 105.69L35.8456 111H32.9836L31.6156 106.14H30.8236V111H28.1236ZM30.8236 103.764H31.7776C32.5216 103.764 32.9116 103.434 32.9476 102.774C33.0076 101.838 33.0076 100.902 32.9476 99.966C32.9116 99.306 32.5216 98.976 31.7776 98.976H30.8236V103.764ZM37.2467 111V96.6H39.9467V111H37.2467ZM45.5987 111.18C44.2247 111.18 43.2287 110.901 42.6107 110.343C41.9987 109.785 41.6687 108.858 41.6207 107.562C41.6027 107.058 41.5877 106.485 41.5757 105.843C41.5697 105.195 41.5667 104.529 41.5667 103.845C41.5667 103.161 41.5697 102.501 41.5757 101.865C41.5877 101.229 41.6027 100.668 41.6207 100.182C41.6747 98.838 42.0077 97.875 42.6197 97.293C43.2377 96.711 44.2307 96.42 45.5987 96.42C46.9247 96.42 47.8907 96.699 48.4967 97.257C49.1027 97.809 49.4447 98.73 49.5227 100.02C49.5407 100.296 49.5497 100.626 49.5497 101.01C49.5497 101.388 49.5407 101.718 49.5227 102H46.8227C46.8587 101.232 46.8587 100.464 46.8227 99.696C46.7987 99.306 46.6907 99.03 46.4987 98.868C46.3127 98.7 46.0127 98.616 45.5987 98.616C45.1667 98.616 44.8517 98.7 44.6537 98.868C44.4617 99.03 44.3507 99.306 44.3207 99.696C44.2727 100.536 44.2397 101.43 44.2217 102.378C44.2097 103.32 44.2097 104.265 44.2217 105.213C44.2397 106.155 44.2727 107.046 44.3207 107.886C44.3507 108.282 44.4617 108.564 44.6537 108.732C44.8517 108.9 45.1667 108.984 45.5987 108.984C46.0487 108.984 46.3757 108.9 46.5797 108.732C46.7897 108.564 46.9127 108.282 46.9487 107.886C46.9667 107.676 46.9757 107.412 46.9757 107.094C46.9757 106.77 46.9667 106.506 46.9487 106.302H45.9587V103.962H49.5767C49.6067 104.508 49.6187 105.108 49.6127 105.762C49.6067 106.41 49.5887 107.01 49.5587 107.562C49.4987 108.858 49.1597 109.785 48.5417 110.343C47.9297 110.901 46.9487 111.18 45.5987 111.18ZM55.003 111.18C53.629 111.18 52.633 110.901 52.015 110.343C51.403 109.785 51.073 108.858 51.025 107.562C51.007 107.058 50.992 106.485 50.98 105.843C50.974 105.195 50.971 104.529 50.971 103.845C50.971 103.161 50.974 102.501 50.98 101.865C50.992 101.229 51.007 100.668 51.025 100.182C51.079 98.838 51.412 97.875 52.024 97.293C52.642 96.711 53.635 96.42 55.003 96.42C56.329 96.42 57.295 96.699 57.901 97.257C58.507 97.809 58.849 98.73 58.927 100.02C58.945 100.296 58.954 100.626 58.954 101.01C58.954 101.388 58.945 101.718 58.927 102H56.227C56.263 101.232 56.263 100.464 56.227 99.696C56.203 99.306 56.095 99.03 55.903 98.868C55.717 98.7 55.417 98.616 55.003 98.616C54.571 98.616 54.256 98.7 54.058 98.868C53.866 99.03 53.755 99.306 53.725 99.696C53.677 100.536 53.644 101.43 53.626 102.378C53.614 103.32 53.614 104.265 53.626 105.213C53.644 106.155 53.677 107.046 53.725 107.886C53.755 108.282 53.866 108.564 54.058 108.732C54.256 108.9 54.571 108.984 55.003 108.984C55.453 108.984 55.78 108.9 55.984 108.732C56.194 108.564 56.317 108.282 56.353 107.886C56.371 107.676 56.38 107.412 56.38 107.094C56.38 106.77 56.371 106.506 56.353 106.302H55.363V103.962H58.981C59.011 104.508 59.023 105.108 59.017 105.762C59.011 106.41 58.993 107.01 58.963 107.562C58.903 108.858 58.564 109.785 57.946 110.343C57.334 110.901 56.353 111.18 55.003 111.18ZM60.5553 111V96.6H67.1433V98.976H63.2553V102.486H66.9633V104.862H63.2553V108.624H67.1433V111H60.5553ZM68.5533 111V96.6H72.2073C73.5513 96.6 74.5203 96.873 75.1143 97.419C75.7143 97.959 76.0353 98.856 76.0773 100.11C76.0893 100.446 76.0953 100.74 76.0953 100.992C76.1013 101.244 76.1013 101.496 76.0953 101.748C76.0953 102 76.0893 102.294 76.0773 102.63C76.0533 103.41 75.9213 104.049 75.6813 104.547C75.4473 105.045 75.0813 105.426 74.5833 105.69L76.2753 111H73.4133L72.0453 106.14H71.2533V111H68.5533ZM71.2533 103.764H72.2073C72.9513 103.764 73.3413 103.434 73.3773 102.774C73.4373 101.838 73.4373 100.902 73.3773 99.966C73.3413 99.306 72.9513 98.976 72.2073 98.976H71.2533V103.764Z" fill="white"/>
<path d="M78 22H26C23.7909 22 22 23.7909 22 26V66C22 68.2091 23.7909 70 26 70H40V72.42L33.5 76.132C33.19 76.311 32.9993 76.642 33 77V80C33 81.1046 33.8954 82 35 82H69C70.1046 82 71 81.1046 71 80V77C71.0007 76.642 70.81 76.311 70.5 76.132L64 72.42V70H78C80.2091 70 82 68.2091 82 66V26C82 23.7909 80.2091 22 78 22ZM26 24H78C79.1046 24 80 24.8954 80 26V60H24V26C24 24.8954 24.8954 24 26 24ZM62.735 74L66.235 76H37.765L41.265 74H62.735ZM35 80V78H69V80H35ZM62 72H42V70H62V72ZM78 68H26C24.8954 68 24 67.1046 24 66V62H80V66C80 67.1046 79.1046 68 78 68Z" fill="white"/>
<path d="M34.9996 41.816V45C34.9996 45.5523 35.4473 46 35.9996 46C36.5519 46 36.9996 45.5523 36.9996 45V41.816C38.1263 41.4147 38.9055 40.3806 38.9806 39.187L41.9996 38.325V44.918L41.4786 48.053C40.0476 48.3053 39.0032 49.5469 38.9996 51C39.0013 51.4455 39.1039 51.8848 39.2996 52.285L35.2916 56.293C35.0316 56.544 34.9274 56.9158 35.0189 57.2655C35.1104 57.6151 35.3835 57.8882 35.7331 57.9797C36.0827 58.0712 36.4545 57.9669 36.7056 57.707L40.7146 53.7C41.1148 53.8957 41.5541 53.9982 41.9996 54C43.3662 54.0042 44.5618 53.0813 44.9038 51.7582C45.2458 50.4351 44.6471 49.0485 43.4496 48.39L43.7636 46.502L48.0356 48.642C47.8041 50.0423 48.6431 51.3982 49.9996 51.816V57C49.9996 57.5523 50.4473 58 50.9996 58C51.5519 58 51.9996 57.5523 51.9996 57V51.816C53.1547 51.4088 53.9453 50.339 53.9952 49.1152C54.0451 47.8914 53.3444 46.7607 52.2263 46.2608C51.1082 45.7609 49.7983 45.9927 48.9196 46.846L43.9996 44.383V38.724L47.0526 40.472C47.0197 40.6461 47.0019 40.8228 46.9996 41C46.9996 42.6568 48.3427 44 49.9996 44C51.6565 44 52.9996 42.6568 52.9996 41C52.998 40.4424 52.8392 39.8965 52.5416 39.425L54.7806 36.625C55.1081 36.1928 55.0314 35.5783 54.6077 35.2398C54.1841 34.9013 53.5679 34.9622 53.2186 35.377L50.9786 38.177C49.9742 37.807 48.8476 38.0225 48.0506 38.737L43.9996 36.42V33.858C45.9499 33.3544 47.2215 31.4792 46.9677 29.481C46.7139 27.4828 45.0139 25.985 42.9996 25.985C40.9853 25.985 39.2853 27.4828 39.0315 29.481C38.7777 31.4792 40.0493 33.3544 41.9996 33.858V36.245L38.4356 37.263C37.6888 36.2084 36.3495 35.7521 35.1142 36.1315C33.879 36.511 33.0267 37.6403 33.0006 38.9323C32.9746 40.2243 33.7806 41.3871 34.9996 41.816ZM50.9996 48C51.5519 48 51.9996 48.4477 51.9996 49C51.9996 49.5523 51.5519 50 50.9996 50C50.4473 50 49.9996 49.5523 49.9996 49C49.9996 48.4477 50.4473 48 50.9996 48ZM49.9996 40C50.5519 40 50.9996 40.4477 50.9996 41C50.9996 41.5523 50.5519 42 49.9996 42C49.4473 42 48.9996 41.5523 48.9996 41C48.9996 40.4477 49.4473 40 49.9996 40ZM41.9996 52C41.7378 52.0008 41.4863 51.8984 41.2996 51.715V51.7L41.2876 51.692C40.9582 51.3483 40.9167 50.8201 41.1884 50.4292C41.4601 50.0384 41.9697 49.8932 42.4066 50.0822C42.8435 50.2712 43.0866 50.742 42.9878 51.2076C42.8889 51.6733 42.4756 52.0047 41.9996 52ZM40.9996 30C40.9996 28.8954 41.895 28 42.9996 28C44.1042 28 44.9996 28.8954 44.9996 30C44.9996 31.1045 44.1042 32 42.9996 32C41.895 32 40.9996 31.1045 40.9996 30ZM35.9996 38C36.5519 38 36.9996 38.4477 36.9996 39C36.9996 39.5523 36.5519 40 35.9996 40C35.4473 40 34.9996 39.5523 34.9996 39C34.9996 38.4477 35.4473 38 35.9996 38Z" fill="white"/>
<path d="M62.9459 49.794C63.2338 50.513 63.9255 50.9886 64.6999 51H64.7299C65.5146 51.0006 66.2246 50.535 66.5369 49.815L67.5369 47.537L69.8149 46.537C70.5447 46.2204 71.0123 45.4956 70.9999 44.7C70.9906 43.926 70.5175 43.2333 69.7999 42.943L62.6179 40.056C61.8883 39.7674 61.057 39.9397 60.5023 40.4944C59.9475 41.0492 59.7752 41.8805 60.0639 42.61L62.9459 49.794ZM68.9179 44.749L66.3769 45.862C66.1466 45.9629 65.9627 46.1467 65.8619 46.377L64.7489 48.92L61.8669 41.914L68.9179 44.749Z" fill="white"/>
<path d="M54 64H50C49.4477 64 49 64.4477 49 65C49 65.5523 49.4477 66 50 66H54C54.5523 66 55 65.5523 55 65C55 64.4477 54.5523 64 54 64Z" fill="white"/>
</svg>
