<svg  viewBox="0 0 169 180" fill="none" xmlns="http://www.w3.org/2000/svg">
<rect width="169" height="169" fill="#222222"/>
<path d="M47.3386 176L49.3366 161.6H53.9446L55.9426 176H53.1706L52.8646 172.994H50.4166L50.1106 176H47.3386ZM50.6686 170.618H52.6126L52.2886 167.432L52.0726 163.976H51.2086L50.9926 167.432L50.6686 170.618ZM57.1607 176V161.6H61.6067L62.6867 166.19L63.6767 173.624H64.5047L64.0007 167.774L63.7847 161.6H66.5027V176H61.8407L60.7607 171.284L60.0227 163.958H59.1587L59.6267 170.474L59.8607 176H57.1607ZM68.3053 176V161.6H71.0053V176H68.3053ZM72.8053 176V161.6H77.6833L78.8713 167.054L79.1053 173.624H79.9333L80.1493 167.054L81.3553 161.6H86.2153V176H83.4253V171.572L83.9473 163.976H83.1013L82.3453 171.752L81.1393 176H77.7913L76.6933 171.752L75.9193 163.976H75.0913L75.5953 171.572V176H72.8053ZM87.4344 176L89.4324 161.6H94.0404L96.0384 176H93.2664L92.9604 172.994H90.5124L90.2064 176H87.4344ZM90.7644 170.618H92.7084L92.3844 167.432L92.1684 163.976H91.3044L91.0884 167.432L90.7644 170.618ZM98.2539 176V163.976H95.7609V161.6H103.447V163.976H100.954V176H98.2539ZM108.104 176.18C106.712 176.18 105.707 175.901 105.089 175.343C104.477 174.785 104.156 173.858 104.126 172.562C104.108 171.662 104.096 170.81 104.09 170.006C104.084 169.196 104.084 168.389 104.09 167.585C104.096 166.775 104.108 165.92 104.126 165.02C104.156 163.73 104.477 162.809 105.089 162.257C105.707 161.699 106.712 161.42 108.104 161.42C109.472 161.42 110.462 161.699 111.074 162.257C111.692 162.809 112.022 163.73 112.064 165.02C112.1 165.926 112.124 166.784 112.136 167.594C112.148 168.404 112.148 169.211 112.136 170.015C112.124 170.819 112.1 171.668 112.064 172.562C112.022 173.858 111.692 174.785 111.074 175.343C110.462 175.901 109.472 176.18 108.104 176.18ZM108.104 173.984C108.548 173.984 108.866 173.885 109.058 173.687C109.256 173.489 109.358 173.162 109.364 172.706C109.49 170.096 109.49 167.486 109.364 164.876C109.358 164.426 109.256 164.105 109.058 163.913C108.866 163.715 108.548 163.616 108.104 163.616C107.666 163.616 107.345 163.715 107.141 163.913C106.943 164.105 106.838 164.426 106.826 164.876C106.7 167.486 106.7 170.096 106.826 172.706C106.838 173.162 106.943 173.489 107.141 173.687C107.345 173.885 107.666 173.984 108.104 173.984ZM113.762 176V161.6H117.416C118.76 161.6 119.729 161.873 120.323 162.419C120.923 162.959 121.244 163.856 121.286 165.11C121.298 165.446 121.304 165.74 121.304 165.992C121.31 166.244 121.31 166.496 121.304 166.748C121.304 167 121.298 167.294 121.286 167.63C121.262 168.41 121.13 169.049 120.89 169.547C120.656 170.045 120.29 170.426 119.792 170.69L121.484 176H118.622L117.254 171.14H116.462V176H113.762ZM116.462 168.764H117.416C118.16 168.764 118.55 168.434 118.586 167.774C118.646 166.838 118.646 165.902 118.586 164.966C118.55 164.306 118.16 163.976 117.416 163.976H116.462V168.764Z" fill="white"/>
<path d="M124.533 104.506H90.1393V102.558C90.4912 102.412 90.8273 102.215 91.1328 101.959L93.2514 100.186C93.8543 99.6815 94.2 98.9412 94.2 98.1551V92.7576C94.2 91.2971 93.0119 90.109 91.5514 90.109H85.798C84.3375 90.109 83.1494 91.2971 83.1494 92.7576V98.1551C83.1494 98.9412 83.4953 99.6817 84.098 100.186L86.2168 101.959C86.5221 102.215 86.8578 102.412 87.2094 102.558V104.506H71.3586C69.7588 104.506 68.457 105.808 68.457 107.407V111.518C68.457 113.118 69.7588 114.419 71.3586 114.419H87.2094V118.415H71.3586C69.7588 118.415 68.457 119.716 68.457 121.316V125.427C68.457 127.027 69.7588 128.328 71.3586 128.328H87.2094V133.535C87.2094 134.344 87.865 135 88.6742 135C89.4834 135 90.1391 134.344 90.1391 133.535V128.329H124.533C126.133 128.329 127.434 127.027 127.434 125.427V121.316C127.434 119.717 126.133 118.415 124.533 118.415H90.1393V114.42H124.533C126.133 114.42 127.435 113.118 127.435 111.518V107.408C127.435 105.808 126.133 104.506 124.533 104.506ZM86.0791 98.0237V93.0389H91.2701V98.0237L89.2523 99.7125C89.0865 99.8512 88.8836 99.9209 88.6805 99.9223C88.6783 99.9223 88.6764 99.9221 88.6742 99.9221C88.6723 99.9221 88.6705 99.9223 88.6686 99.9223C88.4654 99.9209 88.2627 99.8514 88.0971 99.7127L86.0791 98.0237ZM71.3867 125.399V121.345H87.2096V125.399H71.3867ZM124.505 125.399H105.209V121.345H124.505V125.399ZM102.28 121.345V125.399H90.1393V121.345H102.28ZM71.3867 111.49V107.436H87.2096V111.49H71.3867ZM90.1393 107.436H111.112V111.49H90.1393V107.436ZM124.505 111.49H114.042V107.436H124.505V111.49Z" fill="white"/>
<path d="M59.9402 104.506H45.398C43.8367 104.506 42.5664 105.776 42.5664 107.338V111.588C42.5664 113.149 43.8367 114.42 45.398 114.42H59.9402C61.5016 114.42 62.7717 113.149 62.7717 111.588V107.338C62.7717 105.776 61.5018 104.506 59.9402 104.506ZM59.842 111.49H45.4961V107.436H59.842V111.49Z" fill="white"/>
<path d="M59.9402 118.415H45.398C43.8367 118.415 42.5664 119.685 42.5664 121.246V125.497C42.5664 127.058 43.8367 128.329 45.398 128.329H59.9402C61.5016 128.329 62.7717 127.058 62.7717 125.497V121.246C62.7717 119.685 61.5018 118.415 59.9402 118.415ZM59.842 125.399H45.4961V121.345H59.842V125.399Z" fill="white"/>
<path d="M120.465 35H49.5357C45.6928 35 42.5664 38.1264 42.5664 41.9691V79.0859C42.5664 82.9287 45.6928 86.0551 49.5357 86.0551H59.4439C60.2531 86.0551 60.9088 85.3994 60.9088 84.5902C60.9088 83.7811 60.2531 83.1254 59.4439 83.1254H49.5357C47.3084 83.1254 45.4961 81.3135 45.4961 79.0859V41.9691C45.4961 39.7416 47.3084 37.9297 49.5357 37.9297H120.465C122.692 37.9297 124.505 39.7416 124.505 41.9691V79.0859C124.505 81.3133 122.693 83.1254 120.465 83.1254H65.3033C64.4941 83.1254 63.8385 83.7811 63.8385 84.5902C63.8385 85.3994 64.4941 86.0551 65.3033 86.0551H120.465C124.308 86.0551 127.434 82.9287 127.434 79.0859V41.9691C127.434 38.1264 124.308 35 120.465 35V35Z" fill="white"/>
<path d="M115.158 58.9785C115.158 54.4365 111.463 50.7412 106.921 50.7412C102.379 50.7412 98.6836 54.4365 98.6836 58.9785C98.6836 63.5205 102.379 67.2158 106.921 67.2158C111.463 67.2158 115.158 63.5203 115.158 58.9785ZM101.613 58.9785C101.613 56.052 103.994 53.6709 106.921 53.6709C109.847 53.6709 112.229 56.0518 112.229 58.9785C112.229 61.9053 109.848 64.2861 106.921 64.2861C103.994 64.2859 101.613 61.9051 101.613 58.9785Z" fill="white"/>
<path d="M93.9142 55.9541C88.408 55.9541 83.1236 58.2838 79.3805 62.276C77.2363 58.594 74.2506 55.4606 70.642 53.1365C66.2885 50.3324 61.2383 48.8502 56.0371 48.8502C55.2279 48.8502 54.5723 49.5059 54.5723 50.3151C54.5723 51.1242 55.2279 51.7799 56.0371 51.7799C60.6744 51.7799 65.1762 53.1008 69.0557 55.5996C72.8803 58.0633 75.8939 61.5594 77.7879 65.5192C78.2662 66.5115 79.6301 66.6324 80.2826 65.7565C83.4797 61.4531 88.5758 58.8838 93.9144 58.8838C94.7236 58.8838 95.3793 58.2281 95.3793 57.419C95.3793 56.6098 94.7232 55.9541 93.9142 55.9541Z" fill="white"/>
<path d="M93.9159 62.0588C91.1538 62.0588 88.4859 62.8737 86.1992 64.4163C83.456 66.2711 81.4683 69.042 80.6027 72.2178C80.39 72.9983 80.8503 73.8036 81.6308 74.0165C81.7597 74.0516 81.8894 74.0684 82.0171 74.0684C82.6615 74.0684 83.2517 73.6401 83.4294 72.9885C84.1109 70.4881 85.6775 68.3057 87.839 66.8442C89.6386 65.6301 91.74 64.9885 93.9159 64.9885C94.7251 64.9885 95.3808 64.3329 95.3808 63.5237C95.3808 62.7145 94.7249 62.0588 93.9159 62.0588Z" fill="white"/>
<path d="M56.0369 57.8846C60.3021 57.8846 64.4402 59.4119 67.6891 62.1855C70.9027 64.9291 73.0576 68.7156 73.757 72.8477C73.8779 73.5625 74.4979 74.0682 75.1996 74.0682C75.2807 74.0682 75.3631 74.0615 75.4459 74.0475C76.2436 73.9125 76.7807 73.1562 76.6457 72.3588C75.832 67.5508 73.3268 63.1465 69.5914 59.9576C65.8127 56.7316 60.999 54.9551 56.0371 54.9551C55.2279 54.9551 54.5723 55.6107 54.5723 56.4199C54.5723 57.2291 55.2277 57.8846 56.0369 57.8846Z" fill="white"/>
</svg>
