<svg  viewBox="0 0 104 115" fill="none" xmlns="http://www.w3.org/2000/svg">
<rect width="104" height="104" fill="#222222"/>
<path d="M12.0824 111.18C10.6424 111.18 9.6014 110.901 8.9594 110.343C8.3174 109.785 7.9784 108.858 7.9424 107.562C7.9364 107.346 7.9304 107.181 7.9244 107.067C7.9244 106.953 7.9244 106.839 7.9244 106.725C7.9304 106.611 7.9364 106.446 7.9424 106.23H10.6964V107.922C10.6964 108.63 11.1344 108.984 12.0104 108.984C12.8684 108.984 13.3064 108.636 13.3244 107.94C13.3364 107.544 13.3424 107.193 13.3424 106.887C13.3484 106.581 13.3424 106.29 13.3244 106.014C13.3064 105.69 13.2014 105.402 13.0094 105.15C12.8234 104.898 12.4544 104.778 11.9024 104.79L10.0844 104.808L10.0124 102.54L12.8024 98.976H8.1404V96.6H15.9524L15.9164 98.904L13.0184 102.468C14.0084 102.546 14.7494 102.864 15.2414 103.422C15.7394 103.98 16.0184 104.868 16.0784 106.086C16.0904 106.338 16.0964 106.566 16.0964 106.77C16.1024 106.974 16.0964 107.238 16.0784 107.562C16.0244 108.858 15.6854 109.785 15.0614 110.343C14.4434 110.901 13.4504 111.18 12.0824 111.18ZM17.5592 111V96.6H21.3932C22.7432 96.6 23.7182 96.888 24.3182 97.464C24.9242 98.034 25.2392 98.976 25.2632 100.29C25.2812 101.124 25.2932 101.916 25.2992 102.666C25.3052 103.416 25.3052 104.166 25.2992 104.916C25.2932 105.666 25.2812 106.458 25.2632 107.292C25.2392 108.612 24.9242 109.56 24.3182 110.136C23.7182 110.712 22.7432 111 21.3932 111H17.5592ZM20.2592 108.624H21.3932C22.1552 108.624 22.5452 108.288 22.5632 107.616C22.6352 105.066 22.6352 102.516 22.5632 99.966C22.5452 99.306 22.1552 98.976 21.3932 98.976H20.2592V108.624ZM30.8658 111V96.6H35.7438L36.9318 102.054L37.1658 108.624H37.9938L38.2098 102.054L39.4158 96.6H44.2758V111H41.4858V106.572L42.0078 98.976H41.1618L40.4058 106.752L39.1998 111H35.8518L34.7538 106.752L33.9798 98.976H33.1518L33.6558 106.572V111H30.8658ZM49.9049 111.18C48.5129 111.18 47.5079 110.901 46.8899 110.343C46.2779 109.785 45.9569 108.858 45.9269 107.562C45.9089 106.662 45.8969 105.81 45.8909 105.006C45.8849 104.196 45.8849 103.389 45.8909 102.585C45.8969 101.775 45.9089 100.92 45.9269 100.02C45.9569 98.73 46.2779 97.809 46.8899 97.257C47.5079 96.699 48.5129 96.42 49.9049 96.42C51.2729 96.42 52.2629 96.699 52.8749 97.257C53.4929 97.809 53.8229 98.73 53.8649 100.02C53.9009 100.926 53.9249 101.784 53.9369 102.594C53.9489 103.404 53.9489 104.211 53.9369 105.015C53.9249 105.819 53.9009 106.668 53.8649 107.562C53.8229 108.858 53.4929 109.785 52.8749 110.343C52.2629 110.901 51.2729 111.18 49.9049 111.18ZM49.9049 108.984C50.3489 108.984 50.6669 108.885 50.8589 108.687C51.0569 108.489 51.1589 108.162 51.1649 107.706C51.2909 105.096 51.2909 102.486 51.1649 99.876C51.1589 99.426 51.0569 99.105 50.8589 98.913C50.6669 98.715 50.3489 98.616 49.9049 98.616C49.4669 98.616 49.1459 98.715 48.9419 98.913C48.7439 99.105 48.6389 99.426 48.6269 99.876C48.5009 102.486 48.5009 105.096 48.6269 107.706C48.6389 108.162 48.7439 108.489 48.9419 108.687C49.1459 108.885 49.4669 108.984 49.9049 108.984ZM55.5631 111V96.6H59.3971C60.7471 96.6 61.7221 96.888 62.3221 97.464C62.9281 98.034 63.2431 98.976 63.2671 100.29C63.2851 101.124 63.2971 101.916 63.3031 102.666C63.3091 103.416 63.3091 104.166 63.3031 104.916C63.2971 105.666 63.2851 106.458 63.2671 107.292C63.2431 108.612 62.9281 109.56 62.3221 110.136C61.7221 110.712 60.7471 111 59.3971 111H55.5631ZM58.2631 108.624H59.3971C60.1591 108.624 60.5491 108.288 60.5671 107.616C60.6391 105.066 60.6391 102.516 60.5671 99.966C60.5491 99.306 60.1591 98.976 59.3971 98.976H58.2631V108.624ZM64.9146 111V96.6H71.5026V98.976H67.6146V102.486H71.3226V104.862H67.6146V108.624H71.5026V111H64.9146ZM72.9127 111V96.6H75.6127V108.624H79.1587V111H72.9127ZM80.2955 111V96.6H86.8835V98.976H82.9955V102.486H86.7035V104.862H82.9955V108.624H86.8835V111H80.2955ZM88.2936 111V96.6H91.9476C93.2916 96.6 94.2606 96.873 94.8546 97.419C95.4546 97.959 95.7756 98.856 95.8176 100.11C95.8296 100.446 95.8356 100.74 95.8356 100.992C95.8416 101.244 95.8416 101.496 95.8356 101.748C95.8356 102 95.8296 102.294 95.8176 102.63C95.7936 103.41 95.6616 104.049 95.4216 104.547C95.1876 105.045 94.8216 105.426 94.3236 105.69L96.0156 111H93.1536L91.7856 106.14H90.9936V111H88.2936ZM90.9936 103.764H91.9476C92.6916 103.764 93.0816 103.434 93.1176 102.774C93.1776 101.838 93.1776 100.902 93.1176 99.966C93.0816 99.306 92.6916 98.976 91.9476 98.976H90.9936V103.764Z" fill="white"/>
<g clip-path="url(#clip0)">
<path d="M77.943 24.6304H26.057C23.8199 24.6304 22 26.4504 22 28.6874V63.2227C22 65.4597 23.8199 67.2797 26.057 67.2797H33.0156C33.501 67.2797 33.8945 66.8862 33.8945 66.4008C33.8945 65.9154 33.501 65.5219 33.0156 65.5219H26.057C24.7893 65.5219 23.7578 64.4904 23.7578 63.2227V60.4958C24.4118 60.9475 25.2039 61.2128 26.057 61.2128H77.943C78.7961 61.2128 79.5882 60.9475 80.2422 60.4958V63.2227C80.2422 64.4904 79.2107 65.5219 77.943 65.5219H55.1649C55.1627 65.5219 55.1603 65.5219 55.1581 65.5219H48.8424C48.8397 65.5219 48.837 65.5219 48.8343 65.5219H36.5312C36.0459 65.5219 35.6523 65.9154 35.6523 66.4008C35.6523 66.8862 36.0459 67.2797 36.5312 67.2797H47.4972L44.9638 73.1597H43.373C41.2817 73.1597 39.5802 74.8612 39.5802 76.9526V77.5229C39.5802 78.5411 40.4086 79.3696 41.427 79.3696H62.5732C63.5915 79.3696 64.42 78.5412 64.42 77.5229V76.9526C64.42 74.8612 62.7186 73.1597 60.6272 73.1597H59.0364L56.503 67.2797H77.943C80.1801 67.2797 82 65.4597 82 63.2227V28.6874C82 26.4504 80.1801 24.6304 77.943 24.6304ZM62.6621 76.9526V77.5229C62.6621 77.5718 62.6222 77.6118 62.5731 77.6118H41.4269C41.3779 77.6118 41.3379 77.5719 41.3379 77.5229V76.9526C41.3379 75.8304 42.2508 74.9175 43.3729 74.9175H45.5371C45.5386 74.9175 45.5402 74.9178 45.5417 74.9178C45.5427 74.9178 45.5438 74.9175 45.5448 74.9175H58.4552C58.4562 74.9175 58.4573 74.9178 58.4583 74.9178C58.4598 74.9178 58.4614 74.9175 58.4629 74.9175H60.6271C61.7492 74.9175 62.6621 75.8305 62.6621 76.9526ZM57.1223 73.1597H46.8777L49.4111 67.2797H54.5889L57.1223 73.1597ZM77.943 59.4551H26.057C24.7893 59.4551 23.7578 58.4236 23.7578 57.1559V28.6874C23.7578 27.4197 24.7893 26.3882 26.057 26.3882H77.943C79.2107 26.3882 80.2422 27.4197 80.2422 28.6874V57.1558C80.2422 58.4236 79.2107 59.4551 77.943 59.4551Z" fill="white"/>
<path d="M49.8447 33.3234L51.1212 32.5975V35.6862C51.1212 36.1716 51.5147 36.5651 52.0001 36.5651C52.4855 36.5651 52.879 36.1716 52.879 35.6862V32.5976L54.1556 33.3235C54.2928 33.4015 54.442 33.4386 54.5893 33.4386C54.895 33.4386 55.1922 33.2787 55.354 32.9939C55.594 32.5719 55.4465 32.0353 55.0245 31.7955C52.1862 30.1819 52.409 30.3034 52.321 30.2692C52.0702 30.1708 51.7935 30.1954 51.5707 30.3204C51.5691 30.3214 51.5674 30.3219 51.5657 30.3229L48.9759 31.7956C48.5539 32.0355 48.4063 32.5721 48.6463 32.9941C48.8861 33.4158 49.4227 33.5635 49.8447 33.3234Z" fill="white"/>
<path d="M42.7492 50.1886L40.0737 51.7295V50.2708C40.0737 49.7854 39.6801 49.3918 39.1948 49.3918C38.7094 49.3918 38.3159 49.7854 38.3159 50.2708C38.3163 53.398 38.182 53.6927 38.7626 54.0154L41.3317 55.5156C41.471 55.5969 41.6235 55.6356 41.7741 55.6356C42.0763 55.6356 42.3704 55.4795 42.5338 55.1998C42.7786 54.7806 42.6371 54.2424 42.218 53.9977L40.9467 53.2553L43.6264 51.7119C44.047 51.4697 44.1916 50.9323 43.9494 50.5117C43.7072 50.0909 43.1698 49.9465 42.7492 50.1886Z" fill="white"/>
<path d="M64.8056 49.392C64.3203 49.392 63.9267 49.7855 63.9267 50.2709V51.7296L61.2512 50.1887C60.8307 49.9465 60.2932 50.0911 60.051 50.5117C59.8088 50.9323 59.9534 51.4697 60.374 51.7119L63.0537 53.2553L61.7824 53.9977C61.3633 54.2424 61.2218 54.7807 61.4666 55.1998C61.63 55.4796 61.9241 55.6356 62.2263 55.6356C62.3768 55.6356 62.5294 55.5969 62.6687 55.5156C65.0574 54.0805 65.5147 54.0256 65.6568 53.4667C65.7147 53.2398 65.6659 53.2533 65.6845 50.2709C65.6845 49.7855 65.291 49.392 64.8056 49.392Z" fill="white"/>
<path d="M58.8364 41.4077L52.4398 37.7142C52.1678 37.5572 51.8327 37.5572 51.5607 37.7142L45.1641 41.4077C44.8922 41.5648 44.7246 41.8549 44.7246 42.1689C44.7246 42.1909 44.7273 42.2126 44.7289 42.2344V49.5552C44.7289 49.8692 44.8965 50.1594 45.1684 50.3163L51.4976 53.9701C51.5169 53.9835 51.5355 53.9974 51.5561 54.0092C51.692 54.0878 51.8438 54.127 51.9955 54.127C51.997 54.127 51.9986 54.1268 52.0002 54.1268C52.0018 54.1268 52.0032 54.127 52.0049 54.127C52.1566 54.127 52.3084 54.0878 52.4443 54.0092C52.4648 53.9974 52.4836 53.9834 52.5028 53.9701L58.832 50.3163C59.104 50.1594 59.2714 49.8692 59.2714 49.5552V42.2344C59.2731 42.2126 59.2758 42.1909 59.2758 42.1689C59.2759 41.8549 59.1084 41.5648 58.8364 41.4077ZM52.0003 39.4903L56.637 42.1675L52.0003 44.8442L47.3637 42.1676L52.0003 39.4903ZM46.4869 43.6937L51.1167 46.367V51.7206L46.4869 49.0478V43.6937ZM52.8839 51.7206V46.367L57.5138 43.6937V49.0478L52.8839 51.7206Z" fill="white"/>
<path d="M31.7266 29.6967H27.625C26.6881 29.6967 25.9258 30.459 25.9258 31.3959V52.2052C25.9258 53.1421 26.6881 53.9044 27.625 53.9044H31.7266C32.6635 53.9044 33.4258 53.1421 33.4258 52.2052V31.3959C33.4258 30.459 32.6635 29.6967 31.7266 29.6967ZM31.668 52.1466H27.6836V31.4545H31.668V52.1466Z" fill="white"/>
<path d="M29.3438 35.7976H30.0079C30.4932 35.7976 30.8868 35.4041 30.8868 34.9187C30.8868 34.4333 30.4932 34.0398 30.0079 34.0398H29.3438C28.8584 34.0398 28.4648 34.4333 28.4648 34.9187C28.4648 35.4041 28.8582 35.7976 29.3438 35.7976Z" fill="white"/>
<path d="M29.3438 40.3855H30.0079C30.4932 40.3855 30.8868 39.992 30.8868 39.5066C30.8868 39.0212 30.4932 38.6277 30.0079 38.6277H29.3438C28.8584 38.6277 28.4648 39.0212 28.4648 39.5066C28.4648 39.992 28.8582 40.3855 29.3438 40.3855Z" fill="white"/>
<path d="M29.3438 44.9734H30.0079C30.4932 44.9734 30.8868 44.5799 30.8868 44.0945C30.8868 43.6091 30.4932 43.2156 30.0079 43.2156H29.3438C28.8584 43.2156 28.4648 43.6091 28.4648 44.0945C28.4648 44.5799 28.8582 44.9734 29.3438 44.9734Z" fill="white"/>
<path d="M29.3438 49.5613H30.0079C30.4932 49.5613 30.8868 49.1678 30.8868 48.6824C30.8868 48.197 30.4932 47.8035 30.0079 47.8035H29.3438C28.8584 47.8035 28.4648 48.197 28.4648 48.6824C28.4648 49.1678 28.8582 49.5613 29.3438 49.5613Z" fill="white"/>
<path d="M76.6746 28.5702H65.4023C64.5946 28.5702 63.9375 29.2273 63.9375 30.035V39.5917C63.9375 40.3995 64.5946 41.0565 65.4023 41.0565H76.6746C77.4824 41.0565 78.1395 40.3995 78.1395 39.5917V30.035C78.1395 29.2274 77.4823 28.5702 76.6746 28.5702ZM76.3816 39.2987H65.6953V30.328H76.3816V39.2987Z" fill="white"/>
<path d="M68.2246 34.1688H70.9199C71.4053 34.1688 71.7988 33.7753 71.7988 33.2899C71.7988 32.8045 71.4053 32.411 70.9199 32.411H68.2246C67.7392 32.411 67.3457 32.8045 67.3457 33.2899C67.3457 33.7753 67.7391 34.1688 68.2246 34.1688Z" fill="white"/>
<path d="M68.2246 37.2157H73.8496C74.335 37.2157 74.7285 36.8222 74.7285 36.3368C74.7285 35.8514 74.335 35.4579 73.8496 35.4579H68.2246C67.7392 35.4579 67.3457 35.8514 67.3457 36.3368C67.3457 36.8222 67.7391 37.2157 68.2246 37.2157Z" fill="white"/>
</g>
<defs>
<clipPath id="clip0">
<rect width="60" height="60" fill="white" transform="translate(22 22)"/>
</clipPath>
</defs>
</svg>
