<svg  viewBox="0 0 169 180" fill="none" xmlns="http://www.w3.org/2000/svg">
<rect width="169" height="169" fill="#222222"/>
<path d="M52.1236 176V161.6H58.7116V163.976H54.8236V167.486H58.5316V169.862H54.8236V176H52.1236ZM59.1895 176L61.4395 168.512L59.2435 161.6H61.8895L62.8255 164.966L63.0595 167.432H63.7795L64.0135 164.966L64.9135 161.6H67.5595L65.4715 168.602L67.6135 176H64.9675L64.0135 172.454L63.7795 169.808H63.0595L62.8255 172.454L61.8355 176H59.1895ZM71.3758 176L73.3738 161.6H77.9818L79.9798 176H77.2078L76.9018 172.994H74.4538L74.1478 176H71.3758ZM74.7058 170.618H76.6498L76.3258 167.432L76.1098 163.976H75.2458L75.0298 167.432L74.7058 170.618ZM81.1979 176V161.6H84.8519C86.1959 161.6 87.1649 161.873 87.7589 162.419C88.3589 162.959 88.6799 163.856 88.7219 165.11C88.7339 165.446 88.7399 165.74 88.7399 165.992C88.7459 166.244 88.7459 166.496 88.7399 166.748C88.7399 167 88.7339 167.294 88.7219 167.63C88.6979 168.41 88.5659 169.049 88.3259 169.547C88.0919 170.045 87.7259 170.426 87.2279 170.69L88.9199 176H86.0579L84.6899 171.14H83.8979V176H81.1979ZM83.8979 168.764H84.8519C85.5959 168.764 85.9859 168.434 86.0219 167.774C86.0819 166.838 86.0819 165.902 86.0219 164.966C85.9859 164.306 85.5959 163.976 84.8519 163.976H83.8979V168.764ZM92.0039 176V163.976H89.5109V161.6H97.1969V163.976H94.7039V176H92.0039ZM98.1783 176V161.6H100.878V176H98.1783ZM106.359 176.18C105.009 176.18 104.031 175.901 103.425 175.343C102.819 174.785 102.489 173.858 102.435 172.562C102.429 172.274 102.429 171.947 102.435 171.581C102.441 171.215 102.465 170.888 102.507 170.6H105.045C105.021 171.038 105.006 171.47 105 171.896C104.994 172.322 105.009 172.712 105.045 173.066C105.099 173.678 105.537 173.984 106.359 173.984C107.127 173.984 107.547 173.678 107.619 173.066C107.691 172.46 107.691 171.854 107.619 171.248C107.595 170.996 107.487 170.765 107.295 170.555C107.103 170.345 106.863 170.21 106.575 170.15L104.919 169.772C103.977 169.556 103.323 169.16 102.957 168.584C102.591 168.008 102.393 167.27 102.363 166.37C102.345 165.884 102.345 165.434 102.363 165.02C102.417 163.73 102.753 162.809 103.371 162.257C103.989 161.699 104.985 161.42 106.359 161.42C107.703 161.42 108.675 161.699 109.275 162.257C109.881 162.809 110.211 163.73 110.265 165.02C110.277 165.278 110.277 165.593 110.265 165.965C110.259 166.337 110.247 166.682 110.229 167H107.637C107.655 166.586 107.667 166.172 107.673 165.758C107.679 165.344 107.673 164.93 107.655 164.516C107.637 163.916 107.205 163.616 106.359 163.616C105.573 163.616 105.141 163.916 105.063 164.516C104.991 165.134 104.991 165.752 105.063 166.37C105.093 166.61 105.177 166.832 105.315 167.036C105.453 167.234 105.675 167.366 105.981 167.432L107.439 167.738C108.459 167.954 109.188 168.362 109.626 168.962C110.064 169.556 110.301 170.318 110.337 171.248C110.349 171.452 110.352 171.671 110.346 171.905C110.34 172.133 110.331 172.352 110.319 172.562C110.265 173.858 109.932 174.785 109.32 175.343C108.708 175.901 107.721 176.18 106.359 176.18ZM113.502 176V163.976H111.009V161.6H118.695V163.976H116.202V176H113.502Z" fill="white"/>
<g clip-path="url(#clip0)">
<path d="M49.0625 48.0625H52.1875V54.3125H49.0625V48.0625Z" fill="white"/>
<path d="M49.0625 60.5625H52.1875V66.8125H49.0625V60.5625Z" fill="white"/>
<path d="M41.25 55.875H47.5V59H41.25V55.875Z" fill="white"/>
<path d="M53.75 55.875H60V59H53.75V55.875Z" fill="white"/>
<path d="M122.5 68.375H125.625V71.5H122.5V68.375Z" fill="white"/>
<path d="M122.5 62.125H125.625V65.25H122.5V62.125Z" fill="white"/>
<path d="M119.375 65.25H122.5V68.375H119.375V65.25Z" fill="white"/>
<path d="M125.625 65.25H128.75V68.375H125.625V65.25Z" fill="white"/>
<path d="M118.676 81.0405L121.801 79.478L123.198 82.2734L120.073 83.8352L118.676 81.0405Z" fill="white"/>
<path d="M45.2402 83.8344L46.6372 81.0398L49.7622 82.6023L48.3645 85.3969L45.2402 83.8344Z" fill="white"/>
<path d="M102.22 86.6687L100.009 84.4562C100.404 84.0633 100.626 83.5292 100.626 82.9715C100.626 82.4146 100.404 81.8805 100.009 81.4876C99.1799 80.6903 97.87 80.6903 97.0406 81.4876L94.8281 79.2766C96.8957 77.3036 100.15 77.3036 102.217 79.2766C104.257 81.3175 104.257 84.6248 102.217 86.6657L102.22 86.6687Z" fill="white"/>
<path d="M130.312 40.25H125.625V43.375H130.312C131.175 43.375 131.875 44.0746 131.875 44.9375V90.25H115.184C117.578 85.2474 115.828 79.2461 111.122 76.3126C112.116 72.6047 111.351 68.6451 109.048 65.5742C106.744 62.5034 103.157 60.6609 99.3188 60.5778C96.8416 54.8763 91.2172 51.1883 85.0008 51.1883C78.7843 51.1883 73.1599 54.8763 70.6827 60.5778C66.8443 60.6609 63.257 62.5027 60.9529 65.5735C58.6488 68.6443 57.8836 72.604 58.8785 76.3126C54.1719 79.2461 52.4225 85.2474 54.8158 90.25H38.125V44.9375C38.125 44.0746 38.8246 43.375 39.6875 43.375H44.375V40.25H39.6875C37.0988 40.25 35 42.3488 35 44.9375V107.438C35 110.026 37.0988 112.125 39.6875 112.125H72.5V119.938C72.5 122.526 70.4012 124.625 67.8125 124.625H60V134H110V124.625H102.188C99.5988 124.625 97.5 122.526 97.5 119.938V112.125H130.312C132.901 112.125 135 110.026 135 107.438V44.9375C135 42.3488 132.901 40.25 130.312 40.25ZM64.6875 77.75V74.625C63.7003 74.6273 62.7184 74.7646 61.7685 75.0332C61.2344 72.4819 61.7815 69.8238 63.2799 67.6914C64.7783 65.5598 67.0938 64.1437 69.6748 63.7829C69.4765 64.7808 69.3758 65.7955 69.375 66.8125H72.5C72.5 59.9087 78.0962 54.3125 85 54.3125C91.9038 54.3125 97.5 59.9087 97.5 66.8125H100.625C100.624 65.794 100.524 64.7785 100.325 63.7798C102.905 64.1422 105.22 65.5575 106.719 67.6891C108.217 69.8215 108.765 72.4789 108.232 75.0294C107.282 74.7623 106.299 74.6265 105.312 74.625V77.75C109.625 77.7553 113.12 81.2496 113.125 85.5625C113.117 87.2608 112.549 88.9088 111.508 90.25H58.4924C57.451 88.9088 56.8826 87.2608 56.875 85.5625C56.8803 81.2496 60.3746 77.7553 64.6875 77.75ZM106.875 127.75V130.875H63.125V127.75H106.875ZM85 121.566C87.5887 121.566 89.6875 119.467 89.6875 116.878V112.125H94.375V119.938C94.3811 121.634 94.9442 123.281 95.9779 124.625H74.0221C75.0558 123.281 75.6189 121.634 75.625 119.938V112.125H80.3125V116.878C80.3125 119.467 82.4113 121.566 85 121.566ZM83.4375 116.878V112.125H86.5625V116.878C86.5625 117.741 85.8629 118.441 85 118.441C84.1371 118.441 83.4375 117.741 83.4375 116.878ZM131.875 107.438C131.875 108.3 131.175 109 130.312 109H39.6875C38.8246 109 38.125 108.3 38.125 107.438V93.375H131.875V107.438Z" fill="white"/>
<path d="M89.6875 96.5H80.3125V105.875H89.6875V96.5ZM86.5625 102.75H83.4375V99.625H86.5625V102.75Z" fill="white"/>
<path d="M73.6506 84.4577C72.1163 82.9227 72.1163 80.4348 73.6506 78.8997C75.1856 77.3655 77.6736 77.3655 79.2086 78.8997L81.4181 76.6903C80.6948 75.9731 79.8228 75.4223 78.863 75.0782C79.4688 71.9265 82.3626 69.7452 85.5586 70.0313C88.7553 70.3174 91.215 72.9786 91.2509 76.1875H94.3759C94.3415 71.3268 90.597 67.2985 85.7516 66.9094C80.9062 66.5203 76.5673 69.8993 75.7571 74.6921C74.129 74.8333 72.6023 75.5405 71.4411 76.6903C68.6915 79.4475 68.6915 83.91 71.4411 86.6672L73.6506 84.4577Z" fill="white"/>
<path d="M111.562 35.5625H114.688V41.8125H111.562V35.5625Z" fill="white"/>
<path d="M111.562 48.0625H114.688V54.3125H111.562V48.0625Z" fill="white"/>
<path d="M103.75 43.375H110V46.5H103.75V43.375Z" fill="white"/>
<path d="M116.25 43.375H122.5V46.5H116.25V43.375Z" fill="white"/>
<path d="M53.75 40.25H56.875V43.375H53.75V40.25Z" fill="white"/>
<path d="M53.75 34H56.875V37.125H53.75V34Z" fill="white"/>
<path d="M50.625 37.125H53.75V40.25H50.625V37.125Z" fill="white"/>
<path d="M56.875 37.125H60V40.25H56.875V37.125Z" fill="white"/>
<path d="M101.084 56.3313L107.334 50.0813L109.543 52.2908L103.293 58.5415L101.084 56.3313Z" fill="white"/>
<path d="M81.875 40.25H85V48.0625H81.875V40.25Z" fill="white"/>
<path d="M81.875 34H85V37.125H81.875V34Z" fill="white"/>
<path d="M115.146 73.5203L118.271 70.3953L120.481 72.6047L117.356 75.7297L115.146 73.5203Z" fill="white"/>
<path d="M58.8945 44.4798L61.104 42.2695L72.0407 53.207L69.8313 55.4165L58.8945 44.4798Z" fill="white"/>
<path d="M45 72.7496L46.8753 70.2502L53.1253 74.9377L51.25 77.4371L45 72.7496Z" fill="white"/>
<path d="M91.3301 47.5681L92.8926 42.8813L95.8574 43.8701L94.2941 48.5569L91.3301 47.5681Z" fill="white"/>
</g>
<defs>
<clipPath id="clip0">
<rect width="100" height="100" fill="white" transform="translate(35 34)"/>
</clipPath>
</defs>
</svg>
