<svg width="150" height="60" viewBox="0 0 150 60" fill="none" xmlns="http://www.w3.org/2000/svg">
<path d="M46.4355 39.4285H51.5188L48.925 17.9031L46.4355 39.4285Z" fill="white"/>
<path d="M70.7771 13.7888C70.7622 13.7888 70.7473 13.7888 70.7324 13.7888V29.9925C71.4479 29.9925 72.1784 29.8286 72.879 29.4857C74.9958 28.4571 76.8144 25.8932 76.8144 21.8087C76.7995 14.0124 71.4927 13.7888 70.7771 13.7888Z" fill="white"/>
<path d="M0 0V60H149.068V0H0ZM126.157 34.554H118.002V46.1068H126.157V55.1702H108.969V9.51056L101.724 55.1702L91.1255 55.2C91.1255 55.2 85.7292 22.8671 85.7143 22.7925C86.5938 28.0099 83.2994 33.4807 80.3925 35.6273L86.1317 55.1702H86.1168H86.1019V55.1851H86.087H77.2025H77.2174L72.8497 38.5193L70.7329 38.8323V55.1851H70.718H70.7031V55.2H70.6882L53.4708 55.1851L52.4124 47.4335H45.3466L44.2882 55.1851H26.7578V30.887L22.6733 55.1702H17.8435L13.6994 30.887V55.1702H4.60621V4.8H16.159L20.2137 30.8273L24.3727 4.8H35.9255V51.1304L42.8721 4.8H54.9466L61.6696 49.5205L61.6994 4.8C61.6994 4.8 70.8671 4.8 70.9267 4.8C79.2298 4.8 83.0013 10.882 84.0596 12.9839L83.0311 4.8H92.2435L96.3876 35.4783L100.591 4.8H126.142V13.9826H117.988V25.3565H126.142V34.554H126.157ZM144.477 55.1553H127.722V4.78509H136.74V46.0919H144.477V55.1553Z" fill="white"/>
</svg>
