<svg width="188" height="40" viewBox="0 0 188 40" fill="none" xmlns="http://www.w3.org/2000/svg">
<path d="M0 0H19.0406V19.0406H0V0Z" fill="white"/>
<path d="M20.959 0H39.9996C39.9996 6.34686 39.9996 12.6937 39.9996 19.0406C33.6527 19.0406 27.3058 19.0406 20.9959 19.0406C20.959 12.6937 20.959 6.34686 20.959 0Z" fill="white"/>
<path d="M171.551 7.23239C173.322 6.08848 175.573 5.97778 177.529 6.53129C177.529 7.7121 177.529 8.89291 177.529 10.0737C176.606 9.66782 175.499 9.37261 174.503 9.77852C173.728 10.0737 173.248 10.8855 173.137 11.6973C172.99 12.7305 173.101 13.7638 173.064 14.7601C175.056 14.7601 177.086 14.7601 179.078 14.7601C179.078 13.4686 179.078 12.1401 179.078 10.8486C180.444 10.4427 181.809 10.0368 183.137 9.63092C183.137 11.3283 183.137 13.0627 183.137 14.797C184.503 14.7601 185.868 14.797 187.196 14.797V18.1549C185.831 18.0811 184.466 18.1549 183.101 18.118C183.101 20.0368 183.101 21.9556 183.101 23.8745C183.137 24.9446 183.027 26.0147 183.174 27.0848C183.248 27.7121 183.47 28.4132 184.06 28.7084C185.056 29.2619 186.274 29.0036 187.196 28.4132V31.7711C186.016 32.2877 184.724 32.4353 183.433 32.3615C182.215 32.2877 180.96 31.8449 180.185 30.8855C179.263 29.8154 179.041 28.3394 179.041 26.9741C179.041 24.0221 179.041 21.07 179.041 18.118C177.049 18.118 175.019 18.118 173.027 18.118C173.027 22.7305 173.027 27.38 173.027 31.9925H168.931C168.931 27.38 168.931 22.7305 168.931 18.118C167.971 18.0811 167.012 18.118 166.053 18.118C166.053 17.011 166.053 15.904 166.053 14.8339C167.012 14.797 167.971 14.8339 168.894 14.8339C168.968 13.3579 168.746 11.8818 169.189 10.4427C169.595 9.11431 170.407 7.9704 171.551 7.23239ZM83.4695 7.49069C84.2813 7.37999 85.2038 7.6383 85.7573 8.3025C86.3847 9.00361 86.5323 10.1475 86.0525 10.9593C85.5359 11.8818 84.3551 12.3246 83.3219 12.1032C82.2518 11.9187 81.3662 10.9224 81.4031 9.81542C81.3293 8.67151 82.3256 7.6014 83.4695 7.49069ZM51.9197 8.0073H57.8976C59.7426 12.7305 61.6245 17.4538 63.5064 22.177C63.9861 23.3579 64.4289 24.5387 64.9455 25.7195C67.3441 19.8154 69.7795 13.9114 72.1411 8.0073C74.0599 7.9704 75.9788 8.0073 77.8976 8.0073C77.8976 16.0147 77.8976 23.9852 77.8976 31.9925C76.4954 31.9925 75.13 31.9925 73.7278 31.9925C73.7278 26.0885 73.7278 20.1844 73.7278 14.2804C73.7278 14.0221 73.7278 13.7638 73.6909 13.4686C73.6171 13.5793 73.5433 13.7269 73.4695 13.8376C71.1079 19.8892 68.6725 25.904 66.3109 31.9556C65.3145 31.9925 64.3551 31.9556 63.3588 31.9556C60.9234 25.904 58.488 19.8523 56.0525 13.8007C55.9787 13.69 55.905 13.5424 55.8312 13.4317C55.7943 16.0147 55.8311 18.5977 55.7942 21.1807C55.7942 24.7601 55.7942 28.3394 55.7942 31.9187C54.5027 31.9187 53.1743 31.9187 51.8828 31.9187C51.9197 23.9852 51.9197 15.9778 51.9197 8.0073ZM94.7979 14.797C96.7906 14.2435 98.9308 14.2435 100.923 14.797C101.329 14.9077 101.735 15.0553 102.104 15.2767C102.067 16.6051 102.104 17.8966 102.104 19.225C100.776 18.2287 99.0784 17.5645 97.4179 17.7859C96.0894 17.8966 94.7979 18.5977 93.9861 19.6678C92.9529 20.9962 92.7315 22.8043 92.8791 24.428C93.0267 25.7195 93.5433 27.011 94.5396 27.8597C95.5728 28.7822 97.0489 29.1143 98.3773 29.0036C99.7057 28.856 100.997 28.2656 102.067 27.4907C102.067 28.7453 102.067 29.963 102.067 31.2176C100.37 32.2139 98.3773 32.4722 96.4585 32.3984C94.5027 32.2877 92.5101 31.5497 91.1079 30.1475C89.5581 28.6715 88.7094 26.5313 88.6356 24.3911C88.5249 22.177 89.0046 19.8523 90.2592 18.0073C91.2924 16.4206 92.9529 15.3136 94.7979 14.797ZM139.743 14.5018C141.661 14.1697 143.654 14.428 145.425 15.0922C145.425 16.3468 145.425 17.6014 145.425 18.856C144.171 18.0073 142.621 17.5276 141.108 17.5645C140.333 17.6014 139.484 17.9335 139.152 18.6346C138.857 19.3726 139.078 20.2951 139.743 20.7379C140.923 21.5128 142.289 21.8449 143.506 22.546C144.466 23.0627 145.388 23.7638 145.868 24.797C146.791 26.6789 146.385 29.1881 144.798 30.5903C143.285 32.0294 141.071 32.3984 139.078 32.3246C137.639 32.2139 136.2 31.9556 134.909 31.3652C134.909 30.0368 134.909 28.7084 134.909 27.38C136.016 28.1918 137.307 28.7453 138.636 29.0036C139.558 29.1512 140.591 29.1512 141.477 28.7453C142.326 28.3394 142.473 27.1217 141.957 26.4206C141.477 25.8671 140.813 25.535 140.148 25.2398C138.931 24.6863 137.676 24.2435 136.606 23.4317C135.868 22.8412 135.278 22.0294 135.056 21.1069C134.724 19.7416 134.835 18.1918 135.61 17.011C136.532 15.6457 138.119 14.797 139.743 14.5018ZM111.255 15.0553C112.399 14.3911 113.839 14.3173 115.056 14.7232C115.056 16.0885 115.056 17.4538 115.056 18.856C114.244 18.3394 113.248 18.118 112.289 18.1918C111.108 18.3394 110.185 19.225 109.706 20.2582C109.189 21.3283 109.078 22.5829 109.115 23.7638C109.115 26.4944 109.115 29.2619 109.115 31.9925H105.056C105.056 26.273 105.056 20.5165 105.056 14.797C106.422 14.797 107.75 14.797 109.115 14.797C109.115 15.7933 109.115 16.7527 109.115 17.749C109.595 16.6789 110.222 15.6457 111.255 15.0553ZM81.7352 14.797C83.1005 14.797 84.4658 14.7601 85.8312 14.797C85.8312 20.5165 85.8312 26.2361 85.8312 31.9925H81.7352C81.7352 26.273 81.7721 20.5165 81.7352 14.797ZM122.658 14.4649C124.65 14.2066 126.717 14.3173 128.562 15.166C130.148 15.8671 131.44 17.1955 132.141 18.7822C132.916 20.4796 133.101 22.3615 132.953 24.2066C132.842 26.0147 132.252 27.7859 131.145 29.225C130.001 30.7379 128.267 31.7711 126.422 32.1401C124.835 32.4722 123.174 32.4722 121.588 32.1401C119.706 31.7342 117.934 30.6272 116.827 29.0405C115.536 27.1955 115.167 24.8339 115.315 22.6198C115.425 20.7379 116.016 18.856 117.196 17.38C118.562 15.7195 120.591 14.7601 122.658 14.4649ZM123.875 17.749C122.879 17.7859 121.883 18.1549 121.182 18.8191C120.185 19.7416 119.706 21.07 119.595 22.3984C119.447 23.8376 119.558 25.3874 120.222 26.7158C120.739 27.749 121.698 28.5608 122.805 28.856C123.912 29.1512 125.093 29.1143 126.163 28.7084C127.086 28.3394 127.787 27.6014 128.193 26.7158C128.783 25.3874 128.857 23.9114 128.783 22.5091C128.672 21.2176 128.303 19.8523 127.344 18.9298C126.458 18.0073 125.13 17.6752 123.875 17.749ZM155.462 14.4649C157.529 14.2066 159.706 14.3542 161.551 15.2767C163.174 16.0885 164.466 17.5645 165.093 19.2619C165.573 20.5534 165.757 21.9925 165.72 23.3579C165.72 25.4243 165.167 27.5645 163.875 29.225C162.658 30.8117 160.776 31.8449 158.82 32.177C156.901 32.4722 154.872 32.3984 153.027 31.6973C151.182 30.9593 149.632 29.4833 148.857 27.6383C148.045 25.7564 147.971 23.6531 148.193 21.6604C148.451 19.6678 149.374 17.7121 150.923 16.3837C152.178 15.3136 153.802 14.6863 155.462 14.4649ZM156.569 17.749C155.425 17.8228 154.318 18.3025 153.58 19.1881C152.768 20.1475 152.436 21.4021 152.326 22.6198C152.215 23.8745 152.326 25.2029 152.805 26.3837C153.211 27.38 153.986 28.2287 154.982 28.6715C155.905 29.0774 156.938 29.1512 157.934 29.0036C158.857 28.856 159.743 28.4132 160.333 27.7121C160.923 27.011 161.255 26.0885 161.403 25.2029C161.588 23.9852 161.588 22.7305 161.366 21.5128C161.145 20.4796 160.702 19.4464 159.89 18.7822C158.968 17.9335 157.713 17.6752 156.569 17.749Z" fill="white"/>
<path d="M0 20.9595C6.34686 20.9595 12.6937 20.9595 19.0406 20.9595C19.0406 27.3063 19.0406 33.6532 19.0406 40.0001H0V20.9595Z" fill="white"/>
<path d="M20.959 20.9595C27.3058 20.9595 33.6527 20.9595 39.9996 20.9595V40.0001H20.959C20.959 33.6532 20.959 27.3063 20.959 20.9595Z" fill="white"/>
</svg>
