<svg width="150" height="40" viewBox="0 0 150 40" fill="none" xmlns="http://www.w3.org/2000/svg">
<path d="M20.4314 0C18.3952 0 16.2209 0 14.1501 0C14.1501 8.52459 14.1156 14.0466 14.1156 22.6057C11.4236 14.2537 8.73167 8.76618 6.03969 0C3.72735 0 2.31234 0 0 0C0 13.3218 0 26.6782 0 40C2.03624 39.7239 4.21053 39.4478 6.24676 39.1717C6.24676 30.8197 6.24676 25.6773 6.28128 17.2908C9.07679 25.5393 10.8024 30.371 13.5979 38.2053C15.7722 37.9638 18.1881 37.6531 20.3969 37.4116C20.3969 24.9525 20.4314 12.4935 20.4314 0Z" fill="white"/>
<path d="M43.9008 0C38.0682 0 32.3391 0 26.5065 0C26.472 12.321 26.472 24.6074 26.4375 36.9284C32.2701 36.4107 38.0682 35.962 43.9008 35.6169C43.9008 33.8223 43.9008 31.2338 43.9008 29.4392C40.1045 29.6808 36.4806 29.9223 32.7188 30.1639C32.7188 26.8507 32.7188 24.1242 32.7533 20.811C35.5143 20.7765 38.4133 20.811 41.2434 20.742C41.2434 18.9474 41.2434 16.3244 41.2434 14.5298C38.4479 14.5643 35.5143 14.5988 32.7533 14.6333C32.7533 11.3201 32.7533 9.52545 32.7878 6.21225C34.5134 6.17774 36.2045 6.17774 37.8957 6.17774C38.2063 6.17774 38.4824 6.17774 38.793 6.17774C39.1036 6.17774 39.3797 6.17774 39.6903 6.17774C41.1053 6.17774 42.5203 6.17774 43.9699 6.17774C43.9353 4.38309 43.9008 1.79465 43.9008 0Z" fill="white"/>
<path d="M67.3342 0.0344238C60.9494 0.0344238 54.3575 0.0344238 47.9727 0.0344238C47.9727 1.82907 47.9727 4.383 47.9727 6.17765C48.2488 6.17765 48.5249 6.17765 48.801 6.17765C49.6293 6.17765 50.4921 6.17765 51.3204 6.17765C52.1487 6.17765 53.0115 6.17765 53.8398 6.17765C54.0469 6.17765 54.2539 6.17765 54.4955 6.17765C54.4955 16.0827 54.461 25.1595 54.461 35.0646C56.4972 34.9956 58.706 34.9266 60.7423 34.8575C60.7423 24.987 60.7768 15.9792 60.7768 6.10863C62.9511 6.10863 65.1599 6.10863 67.3342 6.07411C67.3342 4.41751 67.3342 1.79456 67.3342 0.0344238Z" fill="white"/>
<path d="M88.8696 0C83.037 0 77.2389 0 71.4062 0C71.4062 11.5962 71.4062 23.1579 71.4062 34.7541C72.0965 34.7541 72.7522 34.7541 73.4425 34.7541C74.823 34.7541 76.238 34.7541 77.6185 34.7541C77.6185 29.8533 77.6185 25.3667 77.6185 20.4314C77.9636 20.4314 78.3088 20.4314 78.6539 20.4314C79.4822 20.4314 80.276 20.4314 81.1043 20.4314C81.9326 20.4314 82.7609 20.4314 83.5892 20.4314C84.452 20.4314 85.2803 20.4314 86.1086 20.4314C86.1086 18.6713 86.1086 16.0483 86.1086 14.2882C85.3148 14.2882 84.521 14.2882 83.7272 14.2882C82.8644 14.2882 82.0016 14.2882 81.1388 14.2882C80.276 14.2882 79.4132 14.2882 78.5849 14.2882C78.2742 14.2882 77.9291 14.2882 77.6185 14.2882C77.6185 11.113 77.6185 9.35289 77.6185 6.17774C78.3088 6.17774 78.999 6.17774 79.6547 6.17774C80.345 6.17774 81.0352 6.17774 81.7255 6.17774C82.4157 6.17774 83.106 6.17774 83.7962 6.17774C85.4874 6.17774 87.1785 6.17774 88.8696 6.17774C88.8696 4.45211 88.8696 1.76014 88.8696 0Z" fill="white"/>
<path d="M92.9427 0.0344238C92.9427 11.7342 92.9082 23.4339 92.9082 35.0991C98.4992 35.3062 104.366 35.5478 109.923 35.9274C109.923 34.1328 109.923 31.5443 109.923 29.7497C106.403 29.5426 102.71 29.301 99.1895 29.163C99.1895 19.1544 99.224 10.0776 99.224 0.0344238C97.1532 0.0344238 94.9789 0.0344238 92.9427 0.0344238Z" fill="white"/>
<path d="M115.064 0.0344238C115.099 12.1138 115.099 24.2277 115.133 36.3071C117.17 36.4796 119.309 36.6177 121.346 36.8248C121.346 24.5728 121.38 12.2864 121.346 0.0344238C119.309 0.0344238 117.135 0.0344238 115.064 0.0344238Z" fill="white"/>
<path d="M126.73 0.0344238C129.249 6.14314 131.527 12.2864 134.081 18.7747C131.424 25.0215 128.732 31.1992 126.074 37.2044C128.283 37.4115 130.526 37.7221 132.735 37.9982C134.323 34.1328 135.738 31.1647 137.325 27.2303C138.878 31.4408 140.328 34.7195 141.881 39.0681C144.055 39.3442 146.885 39.7583 149.094 40.0689C146.437 32.9939 143.538 25.6082 140.88 18.9473C143.538 12.666 146.23 6.66083 148.991 0.103449C146.713 0.103449 144.4 0.103449 142.123 0.103449C140.431 4.17592 139.258 6.76436 137.636 10.6298C136.117 6.62631 135.116 4.00336 133.563 0.103449C131.32 0.0344238 129.008 0.0344238 126.73 0.0344238Z" fill="white"/>
</svg>
