<svg  viewBox="0 0 1044 336" fill="none" xmlns="http://www.w3.org/2000/svg">
<path d="M59.4 328H55.4V332H59.4V328ZM59.4 60.8H63.4V56.8H59.4V60.8ZM4 60.8H1.19209e-07V64.8H4V60.8ZM4 7.99999V3.99999H1.19209e-07V7.99999H4ZM174.8 7.99999H178.8V3.99999H174.8V7.99999ZM174.8 60.8V64.8H178.8V60.8H174.8ZM119.4 60.8V56.8H115.4V60.8H119.4ZM119.4 328V332H123.4V328H119.4ZM63.4 328V60.8H55.4V328H63.4ZM59.4 56.8H4V64.8H59.4V56.8ZM8 60.8V7.99999H1.19209e-07V60.8H8ZM4 12H174.8V3.99999H4V12ZM170.8 7.99999V60.8H178.8V7.99999H170.8ZM174.8 56.8H119.4V64.8H174.8V56.8ZM115.4 60.8V328H123.4V60.8H115.4ZM119.4 324H59.4V332H119.4V324ZM196.609 328H192.609V332H196.609V328ZM196.609 7.99999V3.99999H192.609V7.99999H196.609ZM343.009 7.99999H347.009V3.99999H343.009V7.99999ZM343.009 60.8V64.8H347.009V60.8H343.009ZM256.609 60.8V56.8H252.609V60.8H256.609ZM256.609 138.8H252.609V142.8H256.609V138.8ZM339.009 138.8H343.009V134.8H339.009V138.8ZM339.009 191.6V195.6H343.009V191.6H339.009ZM256.609 191.6V187.6H252.609V191.6H256.609ZM256.609 275.2H252.609V279.2H256.609V275.2ZM343.009 275.2H347.009V271.2H343.009V275.2ZM343.009 328V332H347.009V328H343.009ZM200.609 328V7.99999H192.609V328H200.609ZM196.609 12H343.009V3.99999H196.609V12ZM339.009 7.99999V60.8H347.009V7.99999H339.009ZM343.009 56.8H256.609V64.8H343.009V56.8ZM252.609 60.8V138.8H260.609V60.8H252.609ZM256.609 142.8H339.009V134.8H256.609V142.8ZM335.009 138.8V191.6H343.009V138.8H335.009ZM339.009 187.6H256.609V195.6H339.009V187.6ZM252.609 191.6V275.2H260.609V191.6H252.609ZM256.609 279.2H343.009V271.2H256.609V279.2ZM339.009 275.2V328H347.009V275.2H339.009ZM343.009 324H196.609V332H343.009V324ZM390.944 313.4L393.653 310.457L390.944 313.4ZM368.944 251.6L364.945 251.683L364.945 251.725L364.947 251.767L368.944 251.6ZM368.944 229.8L372.943 229.866L368.944 229.8ZM370.544 208V204H367.085L366.586 207.423L370.544 208ZM426.944 208L430.938 208.219L431.169 204H426.944V208ZM425.944 236.8L421.944 236.744L425.944 236.8ZM426.944 262.8L430.928 262.448L430.926 262.422L430.923 262.395L426.944 262.8ZM484.144 262.8L480.172 262.328L480.171 262.333L484.144 262.8ZM484.144 222.4L480.162 222.779L480.166 222.826L480.172 222.872L484.144 222.4ZM476.944 207L473.992 209.699L476.944 207ZM460.944 198L460.054 201.9L460.091 201.908L460.128 201.916L460.944 198ZM424.144 189.6L423.25 193.499L423.254 193.5L424.144 189.6ZM380.544 163.2L383.92 161.055H383.92L380.544 163.2ZM367.344 114L371.342 113.867L371.341 113.859L371.341 113.852L367.344 114ZM367.344 84L371.34 84.1737L371.34 84.1673L367.344 84ZM389.744 22.6L392.408 25.5832L392.416 25.5761L392.424 25.5689L389.744 22.6ZM520.944 22.6L518.22 25.5291L518.235 25.5432L518.25 25.5571L520.944 22.6ZM542.944 84L538.947 84.1673L538.948 84.1766L538.948 84.1858L542.944 84ZM542.944 105L538.946 104.871L538.945 104.903L538.944 104.935L542.944 105ZM542.144 128V132H545.924L546.137 128.226L542.144 128ZM484.544 128L480.548 127.826L480.366 132H484.544V128ZM484.944 72.8L480.946 72.9199L480.946 72.9469L480.948 72.9737L484.944 72.8ZM427.344 72.8L423.377 72.2843L423.374 72.3107L423.371 72.3371L427.344 72.8ZM427.344 114L423.371 114.463L423.373 114.48L423.375 114.496L427.344 114ZM432.944 128.8L429.631 131.041L429.646 131.064L429.662 131.087L432.944 128.8ZM447.744 137.6L446.9 141.51L446.911 141.512L446.922 141.515L447.744 137.6ZM480.144 144.4L480.972 140.487L480.965 140.485L480.144 144.4ZM528.744 171.6L525.513 173.958L525.519 173.966L525.524 173.974L528.744 171.6ZM544.544 222.4L540.547 222.555L540.548 222.595L540.551 222.635L544.544 222.4ZM544.744 237L548.742 237.105L548.742 237.103L544.744 237ZM544.144 251.6L540.15 251.372L540.148 251.403L540.147 251.433L544.144 251.6ZM521.944 313.4L519.249 310.444L521.944 313.4ZM456.144 328C426.544 328 406.033 321.857 393.653 310.457L388.234 316.343C402.788 329.743 425.743 336 456.144 336V328ZM393.653 310.457C381.314 299.095 374.121 279.764 372.94 251.433L364.947 251.767C366.167 281.036 373.64 302.905 388.234 316.343L393.653 310.457ZM372.943 251.517C372.811 245.177 372.81 237.962 372.943 229.866L364.944 229.734C364.81 237.905 364.81 245.223 364.945 251.683L372.943 251.517ZM372.943 229.866C373.074 221.862 373.599 214.771 374.502 208.577L366.586 207.423C365.622 214.029 365.08 221.471 364.944 229.734L372.943 229.866ZM370.544 212H426.944V204H370.544V212ZM422.95 207.781C422.414 217.567 422.078 227.221 421.944 236.744L429.943 236.856C430.076 227.445 430.407 217.9 430.938 208.219L422.95 207.781ZM421.944 236.744C421.809 246.335 422.146 255.159 422.964 263.205L430.923 262.395C430.141 254.708 429.812 246.198 429.943 236.856L421.944 236.744ZM422.959 263.152C423.646 270.933 426.865 277.196 432.853 281.379C438.664 285.439 446.603 287.2 456.144 287.2V279.2C447.418 279.2 441.357 277.561 437.435 274.821C433.689 272.204 431.442 268.267 430.928 262.448L422.959 263.152ZM456.144 287.2C465.138 287.2 472.692 285.419 478.299 281.333C484.034 277.155 487.212 270.951 488.116 263.267L480.171 262.333C479.475 268.249 477.187 272.245 473.588 274.867C469.863 277.581 464.216 279.2 456.144 279.2V287.2ZM488.116 263.272C489.753 249.492 489.753 235.708 488.116 221.928L480.172 222.872C481.734 236.025 481.734 249.175 480.172 262.328L488.116 263.272ZM488.126 222.021C487.5 215.45 484.672 209.525 479.896 204.301L473.992 209.699C477.749 213.808 479.721 218.15 480.162 222.779L488.126 222.021ZM479.896 204.301C475.042 198.992 468.952 195.582 461.76 194.084L460.128 201.916C465.736 203.084 470.312 205.674 473.992 209.699L479.896 204.301ZM461.834 194.1L425.034 185.7L423.254 193.5L460.054 201.9L461.834 194.1ZM425.038 185.701C404.7 181.038 391.289 172.653 383.92 161.055L377.168 165.345C386.065 179.347 401.721 188.562 423.25 193.499L425.038 185.701ZM383.92 161.055C376.273 149.021 371.992 133.374 371.342 113.867L363.346 114.133C364.029 134.626 368.547 151.779 377.168 165.345L383.92 161.055ZM371.341 113.852C370.944 103.141 370.945 93.2501 371.34 84.1737L363.348 83.8262C362.942 93.1499 362.943 103.259 363.346 114.148L371.341 113.852ZM371.34 84.1673C372.52 55.9915 379.835 36.8141 392.408 25.5832L387.079 19.6168C372.186 32.9192 364.568 54.6752 363.347 83.8327L371.34 84.1673ZM392.424 25.5689C405.073 14.1483 425.998 7.99998 456.144 7.99998V-2.28882e-05C425.223 -2.28882e-05 401.881 6.25164 387.063 19.6311L392.424 25.5689ZM456.144 7.99998C485.609 7.99998 505.977 14.143 518.22 25.5291L523.668 19.6709C509.244 6.25701 486.411 -2.28882e-05 456.144 -2.28882e-05V7.99998ZM518.25 25.5571C530.576 36.7843 537.767 55.9721 538.947 84.1673L546.94 83.8327C545.721 54.6945 538.245 32.949 523.637 19.6429L518.25 25.5571ZM538.948 84.1858C539.208 89.7798 539.21 96.6679 538.946 104.871L546.942 105.129C547.21 96.7988 547.213 89.6869 546.939 83.8141L538.948 84.1858ZM538.944 104.935C538.812 113.157 538.547 120.769 538.15 127.774L546.137 128.226C546.541 121.098 546.809 113.376 546.943 105.064L538.944 104.935ZM542.144 124H484.544V132H542.144V124ZM488.54 128.174C488.942 118.935 489.209 109.697 489.343 100.458L481.344 100.342C481.211 109.503 480.946 118.665 480.548 127.826L488.54 128.174ZM489.343 100.458C489.478 91.1806 489.343 81.9034 488.94 72.6263L480.948 72.9737C481.344 82.0966 481.476 91.2193 481.344 100.342L489.343 100.458ZM488.942 72.6801C488.71 64.9508 485.725 58.6808 479.725 54.5145C473.96 50.5108 465.905 48.8 456.144 48.8V56.8C465.183 56.8 471.328 58.4226 475.162 61.0855C478.763 63.5859 480.777 67.3159 480.946 72.9199L488.942 72.6801ZM456.144 48.8C446.975 48.8 439.288 50.538 433.562 54.5145C427.691 58.5914 424.365 64.6835 423.377 72.2843L431.31 73.3157C432.056 67.5832 434.396 63.6752 438.125 61.0855C441.999 58.3953 447.845 56.8 456.144 56.8V48.8ZM423.371 72.3371C421.735 86.378 421.735 100.422 423.371 114.463L431.317 113.537C429.753 100.111 429.753 86.6887 431.317 73.2629L423.371 72.3371ZM423.375 114.496C424.121 120.466 426.218 125.996 429.631 131.041L436.257 126.559C433.537 122.537 431.9 118.2 431.313 113.504L423.375 114.496ZM429.662 131.087C433.463 136.54 439.415 139.896 446.9 141.51L448.587 133.69C442.473 132.371 438.558 129.86 436.225 126.513L429.662 131.087ZM446.922 141.515L479.322 148.315L480.965 140.485L448.565 133.685L446.922 141.515ZM479.315 148.313C501.405 152.991 516.559 161.693 525.513 173.958L531.974 169.242C521.462 154.84 504.216 145.409 480.972 140.487L479.315 148.313ZM525.524 173.974C534.671 186.379 539.77 202.48 540.547 222.555L548.541 222.245C547.718 200.987 542.283 183.221 531.963 169.226L525.524 173.974ZM540.551 222.635C540.81 227.041 540.876 231.794 540.745 236.897L548.742 237.103C548.878 231.806 548.811 226.826 548.537 222.165L540.551 222.635ZM540.745 236.895C540.613 241.924 540.414 246.749 540.15 251.372L548.137 251.828C548.406 247.117 548.608 242.21 548.742 237.105L540.745 236.895ZM540.147 251.433C538.967 279.754 531.712 299.08 519.249 310.444L524.639 316.356C539.375 302.92 546.92 281.046 548.14 251.767L540.147 251.433ZM519.249 310.444C506.735 321.854 486.016 328 456.144 328V336C486.804 336 509.953 329.746 524.639 316.356L519.249 310.444ZM614.869 328H610.869V332H614.869V328ZM614.869 60.8H618.869V56.8H614.869V60.8ZM559.469 60.8H555.469V64.8H559.469V60.8ZM559.469 7.99999V3.99999H555.469V7.99999H559.469ZM730.269 7.99999H734.269V3.99999H730.269V7.99999ZM730.269 60.8V64.8H734.269V60.8H730.269ZM674.869 60.8V56.8H670.869V60.8H674.869ZM674.869 328V332H678.869V328H674.869ZM618.869 328V60.8H610.869V328H618.869ZM614.869 56.8H559.469V64.8H614.869V56.8ZM563.469 60.8V7.99999H555.469V60.8H563.469ZM559.469 12H730.269V3.99999H559.469V12ZM726.269 7.99999V60.8H734.269V7.99999H726.269ZM730.269 56.8H674.869V64.8H730.269V56.8ZM670.869 60.8V328H678.869V60.8H670.869ZM674.869 324H614.869V332H674.869V324ZM752.078 328H748.078V332H752.078V328ZM752.078 7.99999V3.99999H748.078V7.99999H752.078ZM812.078 7.99999H816.078V3.99999H812.078V7.99999ZM812.078 328V332H816.078V328H812.078ZM756.078 328V7.99999H748.078V328H756.078ZM752.078 12H812.078V3.99999H752.078V12ZM808.078 7.99999V328H816.078V7.99999H808.078ZM812.078 324H752.078V332H812.078V324ZM852.078 328H848.078V332H852.078V328ZM852.078 7.99999V3.99999H848.078V7.99999H852.078ZM960.478 7.99999L964.386 7.14867L963.701 3.99999H960.478V7.99999ZM986.878 129.2L990.876 129.058L990.863 128.699L990.786 128.349L986.878 129.2ZM992.078 275.2L988.081 275.342L988.218 279.2H992.078V275.2ZM1010.48 275.2V279.2H1014.35L1014.48 275.331L1010.48 275.2ZM1015.28 129.2L1011.37 128.336L1011.29 128.698L1011.28 129.069L1015.28 129.2ZM1042.08 7.99999V3.99999H1038.87L1038.17 7.13637L1042.08 7.99999ZM1150.08 7.99999H1154.08V3.99999H1150.08V7.99999ZM1150.08 328V332H1154.08V328H1150.08ZM1088.08 328H1084.08V332H1088.08V328ZM1088.08 229.6L1084.09 229.326L1084.08 229.463V229.6H1088.08ZM1099.68 60.8L1103.67 61.0742L1103.96 56.8H1099.68V60.8ZM1080.88 60.8V56.8H1077.25L1076.9 60.4129L1080.88 60.8ZM1064.08 233.6L1067.93 234.692L1068.02 234.346L1068.06 233.987L1064.08 233.6ZM1037.28 328V332H1040.3L1041.13 329.092L1037.28 328ZM962.878 328L959.005 329.001L959.781 332H962.878V328ZM938.478 233.6L934.498 233.996L934.528 234.303L934.605 234.601L938.478 233.6ZM921.278 60.8L925.258 60.4038L924.9 56.8H921.278V60.8ZM902.878 60.8V56.8H898.604L898.887 61.0648L902.878 60.8ZM914.078 229.6H918.078V229.467L918.069 229.335L914.078 229.6ZM914.078 328V332H918.078V328H914.078ZM856.078 328V7.99999H848.078V328H856.078ZM852.078 12H960.478V3.99999H852.078V12ZM956.57 8.85132L982.97 130.051L990.786 128.349L964.386 7.14867L956.57 8.85132ZM982.881 129.342L988.081 275.342L996.076 275.058L990.876 129.058L982.881 129.342ZM992.078 279.2H1010.48V271.2H992.078V279.2ZM1014.48 275.331L1019.28 129.331L1011.28 129.069L1006.48 275.069L1014.48 275.331ZM1019.18 130.064L1045.98 8.86362L1038.17 7.13637L1011.37 128.336L1019.18 130.064ZM1042.08 12H1150.08V3.99999H1042.08V12ZM1146.08 7.99999V328H1154.08V7.99999H1146.08ZM1150.08 324H1088.08V332H1150.08V324ZM1092.08 328V229.6H1084.08V328H1092.08ZM1092.07 229.874L1103.67 61.0742L1095.69 60.5257L1084.09 229.326L1092.07 229.874ZM1099.68 56.8H1080.88V64.8H1099.68V56.8ZM1076.9 60.4129L1060.1 233.213L1068.06 233.987L1084.86 61.187L1076.9 60.4129ZM1060.23 232.508L1033.43 326.908L1041.13 329.092L1067.93 234.692L1060.23 232.508ZM1037.28 324H962.878V332H1037.28V324ZM966.751 326.999L942.351 232.599L934.605 234.601L959.005 329.001L966.751 326.999ZM942.458 233.204L925.258 60.4038L917.298 61.1962L934.498 233.996L942.458 233.204ZM921.278 56.8H902.878V64.8H921.278V56.8ZM898.887 61.0648L910.087 229.865L918.069 229.335L906.869 60.5352L898.887 61.0648ZM910.078 229.6V328H918.078V229.6H910.078ZM914.078 324H852.078V332H914.078V324ZM1208.17 313.4L1205.47 316.356L1205.48 316.362L1205.49 316.369L1208.17 313.4ZM1186.77 251.6L1182.77 251.68L1182.77 251.693L1186.77 251.6ZM1185.97 194.8L1181.97 194.83V194.83L1185.97 194.8ZM1185.97 141L1189.97 141.03V141.03L1185.97 141ZM1186.77 84L1182.77 83.907L1182.77 83.92L1186.77 84ZM1208.17 22.6L1210.85 25.5703L1210.85 25.5689L1208.17 22.6ZM1341.17 22.6L1338.47 25.5558L1338.49 25.5696L1338.5 25.5832L1341.17 22.6ZM1363.17 84L1359.17 84.1302L1359.17 84.1445L1359.17 84.1588L1363.17 84ZM1364.77 141.2L1360.77 141.259L1364.77 141.2ZM1364.77 195L1360.77 194.94L1364.77 195ZM1363.17 251.6L1359.17 251.439L1359.17 251.455L1359.17 251.47L1363.17 251.6ZM1341.17 313.4L1338.49 310.431L1338.48 310.438L1338.47 310.444L1341.17 313.4ZM1296.37 276.6L1293.54 273.772L1293.52 273.793L1293.5 273.815L1296.37 276.6ZM1303.17 254.8L1299.17 254.607L1299.17 254.677L1299.17 254.747L1303.17 254.8ZM1303.17 80.8L1299.17 80.8533L1299.17 80.9231L1299.17 80.9929L1303.17 80.8ZM1296.37 59.4L1293.5 62.1846L1293.54 62.2288L1293.58 62.2716L1296.37 59.4ZM1253.77 59.4L1256.55 62.2716L1256.55 62.2703L1253.77 59.4ZM1246.77 80.8L1250.76 80.9929L1250.77 80.9498L1250.77 80.9066L1246.77 80.8ZM1246.77 254.8L1250.77 254.695L1250.77 254.651L1250.76 254.607L1246.77 254.8ZM1253.77 276.6L1250.94 279.428L1250.96 279.45L1250.98 279.47L1253.77 276.6ZM1275.17 328C1244.61 328 1223.49 321.845 1210.85 310.431L1205.49 316.369C1220.31 329.755 1243.86 336 1275.17 336V328ZM1210.86 310.444C1198.43 299.107 1191.42 279.819 1190.77 251.507L1182.77 251.693C1183.45 280.981 1190.71 302.893 1205.47 316.356L1210.86 310.444ZM1190.77 251.52C1190.37 231.535 1190.1 212.618 1189.97 194.77L1181.97 194.83C1182.1 212.715 1182.37 231.665 1182.77 251.68L1190.77 251.52ZM1189.97 194.77C1189.84 176.79 1189.84 158.877 1189.97 141.03L1181.97 140.97C1181.84 158.857 1181.84 176.81 1181.97 194.83L1189.97 194.77ZM1189.97 141.03C1190.1 123.048 1190.37 104.065 1190.77 84.08L1182.77 83.92C1182.37 103.935 1182.1 122.952 1181.97 140.97L1189.97 141.03ZM1190.77 84.093C1191.42 55.9167 1198.43 36.7728 1210.85 25.5703L1205.49 19.6297C1190.71 32.9605 1183.45 54.75 1182.77 83.907L1190.77 84.093ZM1210.85 25.5689C1223.49 14.155 1244.61 7.99998 1275.17 7.99998V-2.28882e-05C1243.86 -2.28882e-05 1220.31 6.24497 1205.49 19.6311L1210.85 25.5689ZM1275.17 7.99998C1305.18 7.99998 1325.96 14.1481 1338.47 25.5558L1343.86 19.6442C1329.18 6.25183 1305.96 -2.28882e-05 1275.17 -2.28882e-05V7.99998ZM1338.5 25.5832C1351.06 36.801 1358.25 55.9591 1359.17 84.1302L1367.17 83.8698C1366.22 54.7075 1358.74 32.9323 1343.83 19.6168L1338.5 25.5832ZM1359.17 84.1588C1359.97 104.263 1360.5 123.296 1360.77 141.259L1368.77 141.141C1368.5 123.104 1367.97 104.004 1367.17 83.8412L1359.17 84.1588ZM1360.77 141.259C1361.04 159.22 1361.04 177.114 1360.77 194.94L1368.77 195.06C1369.04 177.153 1369.04 159.18 1368.77 141.141L1360.77 141.259ZM1360.77 194.94C1360.5 212.77 1359.97 231.602 1359.17 251.439L1367.17 251.761C1367.97 231.864 1368.5 212.964 1368.77 195.06L1360.77 194.94ZM1359.17 251.47C1358.25 279.777 1351.06 299.079 1338.49 310.431L1343.85 316.369C1358.74 302.921 1366.22 281.023 1367.17 251.73L1359.17 251.47ZM1338.47 310.444C1325.96 321.852 1305.18 328 1275.17 328V336C1305.96 336 1329.18 329.748 1343.86 316.356L1338.47 310.444ZM1275.17 287.2C1285.48 287.2 1293.87 284.923 1299.24 279.385L1293.5 273.815C1290.33 277.077 1284.59 279.2 1275.17 279.2V287.2ZM1299.2 279.428C1304.68 273.944 1307.03 265.405 1307.17 254.853L1299.17 254.747C1299.04 264.462 1296.86 270.456 1293.54 273.772L1299.2 279.428ZM1307.16 254.993C1309.97 196.864 1309.97 138.736 1307.16 80.6071L1299.17 80.9929C1301.97 138.864 1301.97 196.736 1299.17 254.607L1307.16 254.993ZM1307.17 80.7467C1307.03 70.3246 1304.68 61.8867 1299.15 56.5284L1293.58 62.2716C1296.86 65.4466 1299.04 71.2753 1299.17 80.8533L1307.17 80.7467ZM1299.24 56.6154C1293.87 51.077 1285.48 48.8 1275.17 48.8V56.8C1284.59 56.8 1290.33 58.923 1293.5 62.1846L1299.24 56.6154ZM1275.17 48.8C1264.94 48.8 1256.58 51.0972 1250.98 56.5297L1256.55 62.2703C1260.02 58.9028 1265.93 56.8 1275.17 56.8V48.8ZM1250.98 56.5284C1245.48 61.8665 1243.05 70.2766 1242.77 80.6934L1250.77 80.9066C1251.02 71.3233 1253.26 65.4668 1256.55 62.2716L1250.98 56.5284ZM1242.77 80.6071C1239.97 138.736 1239.97 196.864 1242.77 254.993L1250.76 254.607C1247.97 196.736 1247.97 138.864 1250.76 80.9929L1242.77 80.6071ZM1242.77 254.905C1243.05 265.452 1245.48 273.964 1250.94 279.428L1256.6 273.772C1253.26 270.436 1251.02 264.414 1250.77 254.695L1242.77 254.905ZM1250.98 279.47C1256.58 284.903 1264.94 287.2 1275.17 287.2V279.2C1265.93 279.2 1260.02 277.097 1256.55 273.73L1250.98 279.47Z" fill="#FF5E48"/>
</svg>
