<svg width="86" height="100" viewBox="0 0 86 100" fill="none" xmlns="http://www.w3.org/2000/svg">
<path fill-rule="evenodd" clip-rule="evenodd" d="M72.9647 34.9669C73.9559 29.3501 70.2114 24.8898 65.8612 21.6959C59.7489 17.1805 52.8656 14.5373 45.707 12.4448V86.8391C48.8458 84.0858 52.0396 81.0021 55.0132 77.8633C61.4559 70.7598 67.4581 63.4911 69.9361 54.7906C70.9273 50.8259 70.4317 46.3105 67.0727 43.6673C69.9361 41.2995 72.5793 38.436 72.9647 34.9669ZM60.685 60.6827C58.4824 64.7025 55.4537 68.392 51.8744 71.8061L51.8194 50.5506C54.2423 48.7884 56.7202 47.2466 59.7489 46.9713C60.9603 46.9713 62.0066 47.3567 62.8326 48.2928C65.5308 52.5329 62.337 56.9933 60.685 60.6827ZM66.7973 33.3149C66.1916 36.6739 62.5022 38.6012 59.859 40.0329C57.2158 41.3545 54.5727 42.4558 51.8194 43.447V21.6959C56.0595 22.9624 59.859 25.11 63.4934 27.6431C65.1454 29.0748 67.4581 30.8369 66.7973 33.3149Z" fill="white"/>
<path fill-rule="evenodd" clip-rule="evenodd" d="M40.2004 86.2335V12.1697L34.2533 15.2534V55.0111C33.978 56.1675 34.804 57.8745 33.5375 58.4252C33.2071 58.4802 32.9317 58.3701 32.8216 58.0948C30.1784 48.4582 29.1322 38.3261 28.6366 27.9186L28.4163 18.8327L22.6894 23.0728V25.4957C23.0198 35.0772 23.6806 44.4935 25.4978 53.4692L23.2401 56.0023C22.359 54.7908 21.8084 53.5243 21.2027 52.2578C18.3392 44.6036 17.2379 36.2336 16.8524 27.5331L11.8965 31.2225C12.3921 44.3833 14.8701 56.7732 22.8546 66.6851C24.3965 64.923 25.9383 63.1058 27.4802 61.4538C28.3062 65.0331 29.4075 68.4472 30.7842 71.8062C33.0419 76.9824 35.5198 82.2137 40.2004 86.2335Z" fill="white"/>
<path fill-rule="evenodd" clip-rule="evenodd" d="M85.9039 21.8612L76.9832 19.6586L75.3863 13.6013L66.2453 11.4537L64.3731 4.90088L42.8422 0L21.6968 4.90088L19.8246 11.4537L10.6836 13.6013C10.0779 15.6938 9.52724 17.6762 9.03165 19.7137L0.0558755 21.8612C-0.604917 40.859 4.62636 57.5991 14.0977 72.467C21.0361 83.1498 31.4435 94.4383 42.8422 100C50.5515 96.3106 57.4347 90.1432 63.6021 83.2048C78.525 65.9141 86.7299 45.6498 85.9039 21.8612ZM59.5823 79.3502C54.6814 84.8568 49.1748 90.3084 43.0074 93.4471C37.1153 90.4736 31.9391 85.4075 27.2585 80.2313C15.0338 65.9141 6.93914 49.9449 5.56248 31.2225C5.45235 29.6806 5.34222 28.1938 5.45235 26.5969L13.0515 24.8348L14.8136 18.6123L24.1198 16.4097L24.1748 16.1894L25.8268 9.7467L42.7321 5.78194L60.188 9.7467L61.84 16.2996L71.3114 18.5573L72.9083 24.7797L80.5625 26.5419C80.3973 46.9714 72.3026 64.0969 59.5823 79.3502Z" fill="white"/>
</svg>
